<svg xmlns="http://www.w3.org/2000/svg" viewBox="28.9 361 554.1 268"><path fill="#8D6E63" d="M104.9 469.2c-.2-.2-.4-.3-.7-.6.3.3.5.4.7.6zm-4.6-1.6c-1.1 0-1.9.2-2.7.6.7-.3 1.6-.6 2.7-.6zm3.8.9c-.2-.1-.3-.2-.6-.3.3.1.4.2.6.3zm-2.6-.9c.3 0 .7.1 1 .2-.3 0-.7 0-1-.2zm1.9.6c-.2-.1-.4-.1-.6-.2.1 0 .4.1.6.2z"/><path d="M102.7 468c-.1 0-.2 0-.2-.1.1 0 .1.1.2.1zm.9.3c-.1 0-.1-.1-.2-.1 0 0 .1 0 .2.1zm.7.3s-.1 0 0 0c-.2 0 0 0 0 0zm-2.8-1c-.4-.1-1-.1-1.4-.1.6.1 1.1.1 1.4.1z"/><path fill="#F4B400" d="M99 493.2c-3.2-.1-5.8.3-8 1.9-1.9 1.5-3.5 4.3-4.5 6.7-.8 1.9-4.7 9.5-4.7 15.4 0 4.5 5.1 4.9 5.1 4.9l-.8 15.4H111l-.7-23c.1-7.3.7-20.9-11.3-21.3z"/><path fill="#8D6E63" d="M93.4 476.7c.2-4.6 1.5-9.8 8.2-9 8.8 1.1 4.6 15.4 2 18.7-2.9 3.8-1.4 7.1-1.4 7.1s-.9 1.4-3.8 1.7c-2.1.2-4.3-1.7-4.3-1.7s.9-2.3.8-6.1c-.1-4.2-1.7-4.1-1.5-10.7z"/><path d="M100.6 464.8c8.8.7 11.7-2.5 11.7-2.5s.8 8.2-5.8 9.8c0 0-4.5 1-7.2.2l-1.2 5s-1.7-2.5-2.3-.3c-.9 2.2.4 4.5.4 4.5l-1.7 3.1c-.7-1.9-1.7-3.5-2.3-7-.9-4.5-1.7-13.6 8.4-12.8z"/><path fill="none" d="M96.5 578.1c.1-1.8 1-16.3 1.8-21 .3-1.7 2.8-1.7 3.1 0 .9 4.5 2.2 19 2.2 23.3-.1 11.8-.6 14.3-.3 19.9h-10c-1-4.4 3-18.9 3.2-22.2z"/><path fill="#8D6E63" d="M129.5 504.8s.9-1.2 1.1-2.7c.2-2.7 1.2-3.3 1.7-2.7 1.5 2.1 2.1-4.9 5.3-1.4 3.2 3.4-4.2 9.9-4.2 9.9l-3.9-3.1z"/><path fill="#F4B400" d="M108.5 499.5c4 7.3 8.5 16.3 9.6 16.9 1.3.7 11.4-11.6 11.4-11.6l4 3.2s-12.3 16.8-15.6 17.8c-2 .6-13.7-13.9-13.7-13.9l4.3-12.4z"/><path d="M107.1 511.3l-2.5-1.1c-1.2-.6-1.8-1.9-1.3-3.1l3.6-8.5c.6-1.2 1.9-1.8 3.1-1.3l2.5 1.1c1.2.6 1.8 1.9 1.3 3.1l-3.6 8.5c-.5 1.2-1.9 1.7-3.1 1.3z"/><path fill="#8D6E63" d="M100.9 510.8s.8-1.3 1.7-3.6c1-2.3 2.2-2.3 2.3-1.5.1.9-1.2 2.3 0 2.7 1.7.6 6.4-5 6.1-.1-.3 4.9-8 7.2-8 7.2l-2.1-4.7zm2.4 69.6c-.1 11.9-.6 14.4-.3 20.1h7c-.8-4.1 1.7-19.1 2.2-28.3v-.7h-9.3m-15.2.2c.1 3 .1 5.6-.1 8.8-.3 6.3-.6 14.6-.6 20h6.3c-1-4.5 3-19.1 3.2-22.4 0-.8.2-3.3.4-6.4m13.4 29c0 .1 0 .1 0 0 0 .1 0 .1 0 0z"/><path d="M115.7 605.5c-.1-.7-.4-1.1-1-1.5-.2-.2-.6-.3-.8-.6-.1-.1-.3-.1-.4-.2-.3-.1-.7-.3-1-.4-.1-.1-.3-.1-.4-.2-.8-.4-1.5-.9-1.9-1.6-.1-.1-.1-.2-.1-.3 0-.1-.1-.3-.1-.4h-7v1.2c0 .4 0 .8.1 1.2v.2c0 .4 0 .9.1 1.3v.2c0 .4.1 1 .1 1.6h12.5c.2-.3.2-.4.1-.5h-.2zM87 600.4v5.5h11.8v-.4c0-.2-.1-.6-.2-.7-.1-.2-.3-.3-.4-.6-.1-.2-.4-.2-.7-.4-.3-.2-.6-.2-.8-.3-.4-.2-.9-.4-1.3-.8-.3-.2-.6-.4-.9-.8-.3-.4-.6-.7-.9-1-.1-.1-.1-.2-.2-.4 0-.1-.1-.3-.1-.4l-6.3.3z"/><path fill="#40C4FF" d="M112.4 571.8s.2 0 0 0c.8-13.5-1-29.7-1.4-33.5-.1-.6-.1-.8-.1-.8H86.2c0 1.1-.1 2.1-.1 3.2v6.9c0 1 .1 1.8.1 2.8v.7c0 .8.1 1.4.1 2.1v.7c0 .8.1 1.4.1 2.1v.3c.2 2.9.4 5.5.7 8.2.1 1 .1 1.9.2 2.8 0 .3 0 .7.1 1 0 .3 0 .8.1 1.1 0 .3 0 .8.1 1.1v1.3h9.2c0-.3 0-.6.1-.9v-.1c0-.2 0-.6.1-.8v-.2c0-.3 0-.7.1-.9 0-.3 0-.7.1-1v-.1c0-.3 0-.6.1-.9v-.2c0-.2 0-.6.1-.8v-.2c0-.3 0-.6.1-.9v-.1c0-.3.1-.7.1-1v-.1c0-.3 0-.6.1-.8v-.3c0-.2 0-.4.1-.7v-.2c0-.2 0-.4.1-.7v-.2c0-.3.1-.6.1-.8v.1c0-.2.1-.4.1-.7v-.2c0-.2 0-.3.1-.4v-.2c0-.1 0-.3.1-.4v-.1c0-.2.1-.4.1-.6 0-.2.1-.4.2-.6.7-1.2 2.7-1 2.9.6 0 .2.1.6.1.9v.2c0 .3.1.7.1 1v.2c0 .3.1.8.1 1.2 0 .4.1.9.2 1.3v.3c0 .4.1.9.1 1.4v.3c0 .4.1.9.1 1.3v.2c0 .4.1 1 .1 1.5v.4c0 .4.1 1 .1 1.4v.4c0 .4.1.9.1 1.3v.3c0 .3.1.8.1 1.1h9.6v.1l.2-.4z"/><g fill="#CFCFCF"><path d="M250.5 457.1h4.7v4.7h-4.7v-4.7zm0 64.4h4.7v4.7h-4.7v-4.7zm64.2-64.4h4.7v4.7h-4.7v-4.7zm-64.2 128.6h4.7v4.7h-4.7v-4.7zm64.2 0h4.7v4.7h-4.7v-4.7zm64.4-128.6h4.7v4.7h-4.7v-4.7zm0 64.4h4.7v4.7h-4.7v-4.7zm0 64.2h4.7v4.7h-4.7v-4.7z"/><path d="M381.8 588.6h-2v-.8h1.2v-1.3h.9m-5.3 2.1h-3.2v-.9h3.2v.9zm-6.5 0h-3.2v-.9h3.2v.9zm-6.4 0h-3.2v-.9h3.2v.9zm-6.4 0h-3.2v-.9h3.2v.9zm-6.4 0h-3.2v-.9h3.2v.9zm-6.4 0h-3.2v-.9h3.2v.9zm-6.4 0h-3.2v-.9h3.2v.9zm-6.5 0h-3.2v-.9h3.2v.9zm-6.4 0H322v-.9h3.2v.9zm-6.4 0h-3.2v-.9h3.2v.9zm-6.5 0h-3.2v-.9h3.2v.9zm-6.4 0h-3.2v-.9h3.2v.9zm-6.5 0h-3.2v-.9h3.2v.9zm-6.4 0h-3.2v-.9h3.2v.9zm-6.5 0h-3.2v-.9h3.2v.9zm-6.4 0h-3.2v-.9h3.2v.9zm-6.4 0h-3.2v-.9h3.2v.9zm-6.4 0h-3.2v-.9h3.2v.9zm-6.4 0h-3.2v-.9h3.2v.9zm-6.4 0h-2v-2h.9v1.3h1.2m-1.3-4.6h-.9v-3.2h.9v3.2zm0-6.4h-.9v-3.2h.9v3.2zm0-6.5h-.9v-3.2h.9v3.2zm0-6.4h-.9v-3.2h.9v3.2zm0-6.4h-.9v-3.2h.9v3.2zm0-6.4h-.9V548h.9v3.2zm0-6.5h-.9v-3.2h.9v3.2zm0-6.4h-.9v-3.2h.9v3.2zm0-6.4h-.9v-3.2h.9v3.2zm0-6.4h-.9v-3.2h.9v3.2zm0-6.5h-.9v-3.2h.9v3.2zm0-6.4h-.9v-3.2h.9v3.2zm0-6.4h-.9V503h.9v3.2zm0-6.4h-.9v-3.2h.9v3.2zm0-6.4h-.9v-3.2h.9v3.2zm0-6.5h-.9v-3.2h.9v3.2zm0-6.4h-.9v-3.2h.9v3.2zm0-6.4h-.9v-3.2h.9v3.2zm0-6.5h-.9v-3.2h.9v3.2zm0-6.5h-.9v-1.9h2v.8h-1.2m123.4-.1h-3.2v-.9h3.2v.9zm-6.5 0h-3.2v-.9h3.2v.9zm-6.4 0h-3.2v-.9h3.2v.9zm-6.4 0h-3.2v-.9h3.2v.9zm-6.4 0h-3.2v-.9h3.2v.9zm-6.4 0h-3.2v-.9h3.2v.9zm-6.4 0h-3.2v-.9h3.2v.9zm-6.5 0h-3.2v-.9h3.2v.9zm-6.4 0H322v-.9h3.2v.9zm-6.4 0h-3.2v-.9h3.2v.9zm-6.5 0h-3.2v-.9h3.2v.9zm-6.4 0h-3.2v-.9h3.2v.9zm-6.5 0h-3.2v-.9h3.2v.9zm-6.4 0h-3.2v-.9h3.2v.9zm-6.5 0h-3.2v-.9h3.2v.9zm-6.4 0h-3.2v-.9h3.2v.9zm-6.4 0h-3.2v-.9h3.2v.9zm-6.4 0h-3.2v-.9h3.2v.9zm-6.4 0h-3.2v-.9h3.2v.9zm120.9 1.2h-.9v-1.2h-1.2v-.8h2m.1 124.2h-.9v-3.2h.9v3.2zm0-6.4h-.9v-3.2h.9v3.2zm0-6.5h-.9v-3.2h.9v3.2zm0-6.4h-.9v-3.2h.9v3.2zm0-6.4h-.9v-3.2h.9v3.2zm0-6.4h-.9V548h.9v3.2zm0-6.5h-.9v-3.2h.9v3.2zm0-6.4h-.9v-3.2h.9v3.2zm0-6.4h-.9v-3.2h.9v3.2zm0-6.4h-.9v-3.2h.9v3.2zm0-6.5h-.9v-3.2h.9v3.2zm0-6.4h-.9v-3.2h.9v3.2zm0-6.4h-.9V503h.9v3.2zm0-6.4h-.9v-3.2h.9v3.2zm0-6.4h-.9v-3.2h.9v3.2zm0-6.5h-.9v-3.2h.9v3.2zm0-6.4h-.9v-3.2h.9v3.2zm0-6.4h-.9v-3.2h.9v3.2zm0-6.5h-.9v-3.2h.9v3.2z"/></g><g fill="#CFCFCF"><path d="M132.9 418.6h4.7v4.7h-4.7v-4.7zm0 40h4.7v4.7h-4.7v-4.7zm40-40h4.7v4.7h-4.7v-4.7zm-40 80.1h4.7v4.7h-4.7v-4.7zm40 0h4.7v4.7h-4.7v-4.7zm40.2-80.1h4.7v4.7h-4.7v-4.7zm0 40h4.7v4.7h-4.7v-4.7zm0 40.1h4.7v4.7h-4.7v-4.7z"/><path d="M215.9 501.5h-2v-.9h1.2v-1.2h.9m-5.5 2.1h-3.3v-.9h3.3v.9zm-6.7 0h-3.3v-.9h3.3v.9zm-6.7 0h-3.3v-.9h3.3v.9zm-6.7 0h-3.3v-.9h3.3v.9zm-6.7 0h-3.3v-.9h3.3v.9zm-6.7 0h-3.3v-.9h3.3v.9zm-6.6 0h-3.3v-.9h3.3v.9zm-6.8 0h-3.3v-.9h3.3v.9zm-6.7 0h-3.3v-.9h3.3v.9zm-6.7 0h-3.3v-.9h3.3v.9zm-6.7 0h-3.3v-.9h3.3v.9zm-6.6 0h-2v-2h.9v1.2h1.2m-1.3-4.5h-.9v-3.3h.9v3.3zm0-6.8h-.9v-3.3h.9v3.3zm0-6.6h-.9v-3.3h.9v3.3zm0-6.8h-.9v-3.3h.9v3.3zm0-6.6h-.9v-3.3h.9v3.3zm0-6.7h-.9v-3.3h.9v3.3zm0-6.7h-.9v-3.3h.9v3.3zm0-6.7h-.9V446h.9v3.3zm0-6.7h-.9v-3.3h.9v3.3zm0-6.8h-.9v-3.3h.9v3.3zm0-6.6h-.9v-3.3h.9v3.3zm0-6.8h-.9v-2h2v.9h-1.2m74.9 0h-3.3v-.9h3.3v.9zm-6.7 0h-3.3v-.9h3.3v.9zm-6.7 0h-3.3v-.9h3.3v.9zm-6.7 0h-3.3v-.9h3.3v.9zm-6.7 0h-3.3v-.9h3.3v.9zm-6.7 0h-3.3v-.9h3.3v.9zm-6.6 0h-3.3v-.9h3.3v.9zm-6.8 0h-3.3v-.9h3.3v.9zm-6.7 0h-3.3v-.9h3.3v.9zm-6.7 0h-3.3v-.9h3.3v.9zm-6.7 0h-3.3v-.9h3.3v.9zm72.4 1.1h-.9v-1.2h-1.2v-.9h2m.1 75.9h-.9v-3.3h.9v3.3zm0-6.8h-.9v-3.3h.9v3.3zm0-6.6h-.9v-3.3h.9v3.3zm0-6.8h-.9v-3.3h.9v3.3zm0-6.6h-.9v-3.3h.9v3.3zm0-6.7h-.9v-3.3h.9v3.3zm0-6.7h-.9v-3.3h.9v3.3zm0-6.7h-.9V446h.9v3.3zm0-6.7h-.9v-3.3h.9v3.3zm0-6.8h-.9v-3.3h.9v3.3zm0-6.6h-.9v-3.3h.9v3.3z"/></g><g fill="#CFCFCF"><path d="M416.4 429.7h4.7v4.7h-4.7v-4.7zm0 52.3h4.7v4.7h-4.7V482zm52.3-52.3h4.7v4.7h-4.7v-4.7zm-52.3 104.5h4.7v4.7h-4.7v-4.7zm52.3 0h4.7v4.7h-4.7v-4.7zm52.1-104.5h4.7v4.7h-4.7v-4.7zm0 52.3h4.7v4.7h-4.7V482zm0 52.2h4.7v4.7h-4.7v-4.7z"/><path d="M523.6 537.1h-2v-.9h1.3V535h.8m-5.3 2.1h-3.2v-.9h3.2v.9zm-6.6 0h-3.2v-.9h3.2v.9zm-6.5 0h-3.2v-.9h3.2v.9zm-6.5 0h-3.2v-.9h3.2v.9zm-6.5 0h-3.2v-.9h3.2v.9zm-6.6 0h-3.2v-.9h3.2v.9zm-6.6 0h-3.2v-.9h3.2v.9zm-6.5 0h-3.2v-.9h3.2v.9zm-6.5 0h-3.2v-.9h3.2v.9zm-6.6 0h-3.2v-.9h3.2v.9zm-6.5 0h-3.2v-.9h3.2v.9zm-6.5 0h-3.2v-.9h3.2v.9zm-6.5 0h-3.2v-.9h3.2v.9zm-6.5 0h-3.2v-.9h3.2v.9zm-6.6 0h-3.2v-.9h3.2v.9zm-6.5 0h-2v-2h.9v1.2h1.2m-1.3-4.7h-.9v-3.2h.9v3.2zm0-6.5h-.9v-3.2h.9v3.2zm0-6.5h-.9v-3.2h.9v3.2zm0-6.5h-.9v-3.2h.9v3.2zm0-6.5h-.9v-3.2h.9v3.2zm0-6.6h-.9v-3.2h.9v3.2zm0-6.5h-.9v-3.2h.9v3.2zm0-6.5h-.9v-3.2h.9v3.2zm0-6.5h-.9v-3.2h.9v3.2zm0-6.6h-.9v-3.2h.9v3.2zm0-6.5h-.9v-3.2h.9v3.2zm0-6.5h-.9v-3.2h.9v3.2zm0-6.5h-.9v-3.2h.9v3.2zm0-6.5h-.9v-3.2h.9v3.2zm0-6.6h-.9v-3.2h.9v3.2zm0-6.5h-.9v-2h2v.8h-1.2m99.3-.1h-3.2v-.8h3.2v.8zm-6.6 0h-3.2v-.8h3.2v.8zm-6.5 0h-3.2v-.8h3.2v.8zm-6.5 0h-3.2v-.8h3.2v.8zm-6.5 0h-3.2v-.8h3.2v.8zm-6.6 0h-3.2v-.8h3.2v.8zm-6.6 0h-3.2v-.8h3.2v.8zm-6.5 0h-3.2v-.8h3.2v.8zm-6.5 0h-3.2v-.8h3.2v.8zm-6.6 0h-3.2v-.8h3.2v.8zm-6.5 0h-3.2v-.8h3.2v.8zm-6.5 0h-3.2v-.8h3.2v.8zm-6.5 0h-3.2v-.8h3.2v.8zm-6.5 0h-3.2v-.8h3.2v.8zm-6.6 0h-3.2v-.8h3.2v.8zm96.7 1.3h-.8v-1.3h-1.3v-.8h2m.1 99.9h-.9v-3.2h.9v3.2zm0-6.5h-.9v-3.2h.9v3.2zm0-6.5h-.9v-3.2h.9v3.2zm0-6.5h-.9v-3.2h.9v3.2zm0-6.5h-.9v-3.2h.9v3.2zm0-6.6h-.9v-3.2h.9v3.2zm0-6.5h-.9v-3.2h.9v3.2zm0-6.5h-.9v-3.2h.9v3.2zm0-6.5h-.9v-3.2h.9v3.2zm0-6.6h-.9v-3.2h.9v3.2zm0-6.5h-.9v-3.2h.9v3.2zm0-6.5h-.9v-3.2h.9v3.2zm0-6.5h-.9v-3.2h.9v3.2zm0-6.5h-.9v-3.2h.9v3.2zm0-6.6h-.9v-3.2h.9v3.2z"/></g><path fill="#FF5722" d="M512.3 525.6h-82.6l41.2-71.4 41.4 71.4z"/><circle fill="#F4B400" cx="317.2" cy="523.9" r="53.3"/><path fill="#40C4FF" d="M146.2 431.8h58.4v58.4h-58.4v-58.4z"/></svg>