<svg xmlns="http://www.w3.org/2000/svg" xmlns:xlink="http://www.w3.org/1999/xlink" viewBox="0 0 2880 1440"><path fill="#90A4AE" d="M761 1054.4h271.8v223.8H761zM651.6 738.5c-33.5 14.2-63.5 34.4-89.3 60.2-25.8 25.8-46 55.8-60.2 89.3-14.7 34.7-22.1 71.5-22.1 109.4h223.8c0-31.5 25.6-57.2 57.2-57.2V716.3c-37.9 0-74.7 7.5-109.4 22.2zm381.2-22.2h271.8v223.8h-271.8zm271.8 338.1h271.8v223.8h-271.8zm543.7 0h270.8v223.8h-270.8zm-543.7-676.2h271.8V602h-271.8zm543.7 0h270.8V602h-270.8zm469.4 479.7c25.8-25.8 46-55.8 60.2-89.3 14.7-34.7 22.1-71.5 22.1-109.4h-223.8c0 31.5-25.6 57.2-57.2 57.2v223.8c37.9 0 74.7-7.4 109.4-22.1 33.5-14.2 63.5-34.5 89.3-60.2zM761 378.2h271.8V602H761zm815.4 338.1h271.8v223.8h-271.8z"/><path fill="#78909C" d="M480 997.3c0 37.9 7.4 74.7 22.1 109.4 14.2 33.5 34.4 63.5 60.2 89.3 25.8 25.8 55.8 46 89.3 60.2 34.7 14.7 71.5 22.1 109.4 22.1v-223.8c-31.5 0-57.2-25.6-57.2-57.2H480zm552.8 57.1h271.8v223.8h-271.8zM761 716.3h271.8v223.8H761zm815.4 338.1h271.8v223.8h-271.8zm0-676.2h271.8V602h-271.8zm-543.6 0h271.8V602h-271.8zm1367.2 281c0-37.9-7.4-74.7-22.1-109.4-14.2-33.5-34.4-63.5-60.2-89.3-25.8-25.8-55.8-46-89.3-60.2-34.7-14.7-71.5-22.1-109.4-22.1V602c31.5 0 57.2 25.6 57.2 57.2H2400zm-551.7 57.1h270.8v223.8h-270.8zm-543.7 0h271.8v223.8h-271.8z"/><path fill="#90A4AE" d="M563.3 654.9L451.4 461.1c-93.9 54.4-172.3 132.7-226.6 226.6l193.8 111.9c34.7-59.9 84.7-109.9 144.7-144.7z"/><path fill="#78909C" d="M418.6 799.6L224.8 687.7c-46 79.4-74.8 170-81.4 266.7-1.6 23.2 16.7 42.9 39.9 42.9h144.3c20.7 0 38-15.9 39.8-36.5 5.3-58.3 23.3-113 51.2-161.2zM761 602V378.2c-112.8 0-218.5 30.2-309.6 82.9l111.9 193.8C621.4 621.3 688.9 602 761 602z"/><path fill="#90A4AE" d="M2316.7 1001.5l111.9 193.8c93.9-54.4 172.3-132.7 226.6-226.6l-193.8-111.9c-34.7 60-84.7 110-144.7 144.7z"/><path fill="#78909C" d="M2461.4 856.9l193.8 111.9c46-79.4 74.8-170 81.4-266.7 1.6-23.2-16.7-42.9-39.9-42.9h-144.3c-20.7 0-38 15.9-39.8 36.5-5.3 58.3-23.3 113-51.2 161.2zM2119 1054.4v223.8c112.8 0 218.5-30.2 309.6-82.9l-111.9-193.8c-58.1 33.7-125.6 52.9-197.7 52.9z"/><path fill="#FFF" d="M1030.2 933c5.3-5.3 10.1-11.5 15.7-16.4 14.3-12.5 36.5-20.1 61.7-15.8 31.4 5.3 75.3 55.9.9 96.1-29.9 16.2-80.6 3.9-95.9 20.7-25.3 27.7-19.4 47.5-74 57.3-32 5.8-45.7 18.1-53.1 31.7-4.4 8.1-6.8 17.2-12 24.7-6 8.6-15.3 10.6-21.9 4.5-6.5-6-7.7-16.4-7.1-27 .5-9.3 1.8-19.5 6.6-27.4 7-11.3 17.8-18 28.3-23.3 7.2-3.7 14.5-6.9 21.8-9.8 7-2.7 18.8-5.2 22.3-14.3 3.9-10.2-.3-21.7 1.9-32.4 2.1-10.1 9.3-17.7 16.8-22.9 30.6-21.4 55-13.1 88-45.7z" opacity=".25"/><path d="M1429.136 424.51l2.096.668-44.992 141.095-2.096-.668z"/><path d="M1431.304 424.636l45.008 141.095-2.096.67-45.008-141.09z"/><path d="M1397.6 526.2h65.3v2.2h-65.3z"/><path fill="#FFF" d="M1343.2 361.7h174v126.4h-174z"/><path fill="#F4B400" d="M1379.8 447.4h-9.4l3-9.9h9.4"/><path fill="#4DB6AC" d="M1369.1 433.3h-9.3l3-9.8h9.3"/><path fill="#F4B400" d="M1420.3 438h-9.4l3-9.9h9.4"/><path fill="#FF5722" d="M1393.8 437.3h-9.4l3-9.8h9.4m-13.9-6.6h-9.4l3-9.9h9.4"/><path fill="#F4B400" d="M1423.1 414.3h-9.3l3-9.9h9.3m-65.3 12.1h-9.4l3-9.8h9.4"/><circle cx="1429.7" cy="380.1" r="6.4"/><path d="M1370.7 374.3h11.7V386h-11.7zm119 11.7h-13.5l6.8-11.7 6.7 11.7zm-86.9-11.6c-.2 0-.4-.1-.5-.2-.1-.1-.2-.3-.2-.5s.1-.4.2-.5c.3-.3.8-.3 1.1 0 .1.1.2.3.2.5s-.1.4-.2.5c-.2.2-.4.2-.6.2zm-.7 96.8c0-.4.3-.8.8-.8.4 0 .8.3.8.8 0 .4-.3.8-.8.8-.5-.1-.8-.4-.8-.8zm0-4.5c0-.4.3-.7.8-.7.4 0 .8.3.8.7 0 .4-.3.8-.8.8s-.8-.4-.8-.8zm0-4.4c0-.4.3-.8.8-.8.4 0 .8.3.8.8 0 .4-.3.8-.8.8s-.8-.4-.8-.8zm0-4.4c0-.4.3-.8.8-.8.4 0 .8.3.8.8 0 .4-.3.7-.8.7s-.8-.3-.8-.7zm0-4.5c0-.4.3-.7.8-.7.4 0 .8.3.8.7 0 .4-.3.8-.8.8s-.8-.3-.8-.8zm0-4.4c0-.4.3-.8.8-.8.4 0 .8.3.8.8 0 .4-.3.8-.8.8s-.8-.4-.8-.8zm0-4.4c0-.4.3-.8.8-.8.4 0 .8.3.8.8 0 .4-.3.8-.8.8-.5-.1-.8-.4-.8-.8zm0-4.5c0-.4.3-.8.8-.8.4 0 .8.3.8.8 0 .4-.3.8-.8.8s-.8-.3-.8-.8zm0-4.4c0-.4.3-.8.8-.8.4 0 .8.3.8.8 0 .4-.3.8-.8.8s-.8-.4-.8-.8zm0-4.4c0-.4.3-.8.8-.8.4 0 .8.3.8.8 0 .4-.3.8-.8.8-.5-.1-.8-.4-.8-.8zm0-4.4c0-.4.3-.8.8-.8.4 0 .8.3.8.8 0 .4-.3.8-.8.8-.5-.1-.8-.4-.8-.8zm0-4.5c0-.4.3-.8.8-.8.4 0 .8.3.8.8 0 .4-.3.8-.8.8s-.8-.4-.8-.8zm0-4.4c0-.4.3-.8.8-.8.4 0 .8.3.8.8 0 .4-.3.8-.8.8s-.8-.4-.8-.8zm0-4.4c0-.4.3-.8.8-.8.4 0 .8.3.8.8 0 .4-.3.8-.8.8-.5-.1-.8-.4-.8-.8zm0-4.5c0-.4.3-.8.8-.8.4 0 .8.3.8.8 0 .4-.3.8-.8.8s-.8-.4-.8-.8zm0-4.4c0-.4.3-.8.8-.8.4 0 .8.3.8.8 0 .4-.3.8-.8.8s-.8-.4-.8-.8zm0-4.4c0-.4.3-.8.8-.8.4 0 .8.3.8.8 0 .4-.3.8-.8.8-.5-.1-.8-.4-.8-.8zm0-4.5c0-.4.3-.8.8-.8.4 0 .8.3.8.8 0 .4-.3.8-.8.8s-.8-.3-.8-.8zm0-4.4c0-.4.3-.8.8-.8.4 0 .8.3.8.8 0 .4-.3.8-.8.8s-.8-.4-.8-.8zm0-4.4c0-.4.3-.8.8-.8.4 0 .8.3.8.8 0 .4-.3.8-.8.8-.5-.1-.8-.4-.8-.8zm0-4.4c0-.4.3-.8.8-.8.4 0 .8.3.8.8 0 .4-.3.8-.8.8-.5-.1-.8-.4-.8-.8zm0-4.5c0-.4.3-.8.8-.8.4 0 .8.3.8.8 0 .4-.3.8-.8.8s-.8-.4-.8-.8zm.7 98.2c-.2 0-.4-.1-.5-.2-.1-.1-.2-.3-.2-.5s.1-.4.2-.5c.3-.3.8-.3 1.1 0 .1.1.2.3.2.5s-.1.4-.2.5-.4.2-.6.2zm53.3-101.9c-.2 0-.4-.1-.5-.2-.1-.1-.2-.3-.2-.5s.1-.4.2-.5c.3-.3.8-.3 1.1 0 .1.1.2.3.2.5s-.1.4-.2.5c-.2.2-.4.2-.6.2zm-.7 96.8c0-.4.3-.8.8-.8.4 0 .8.3.8.8 0 .4-.3.8-.8.8-.5-.1-.8-.4-.8-.8zm0-4.5c0-.4.3-.8.8-.8.4 0 .8.3.8.8 0 .4-.3.8-.8.8s-.8-.4-.8-.8zm0-4.4c0-.4.3-.8.8-.8.4 0 .8.3.8.8 0 .4-.3.8-.8.8-.5-.1-.8-.4-.8-.8zm0-4.4c0-.4.3-.8.8-.8.4 0 .8.3.8.8 0 .4-.3.8-.8.8-.5-.1-.8-.4-.8-.8zm0-4.5c0-.4.3-.7.8-.7.4 0 .8.3.8.7 0 .4-.3.8-.8.8s-.8-.3-.8-.8zm0-4.4c0-.4.3-.8.8-.8.4 0 .8.3.8.8 0 .4-.3.8-.8.8s-.8-.4-.8-.8zm0-4.4c0-.4.3-.8.8-.8.4 0 .8.3.8.8 0 .4-.3.8-.8.8-.5-.1-.8-.4-.8-.8zm0-4.5c0-.4.3-.8.8-.8.4 0 .8.3.8.8 0 .4-.3.8-.8.8s-.8-.3-.8-.8zm0-4.4c0-.4.3-.8.8-.8.4 0 .8.3.8.8 0 .4-.3.8-.8.8s-.8-.4-.8-.8zm0-4.4c0-.4.3-.8.8-.8.4 0 .8.3.8.8 0 .4-.3.8-.8.8-.5-.1-.8-.4-.8-.8zm0-4.4c0-.4.3-.8.8-.8.4 0 .8.3.8.8 0 .4-.3.8-.8.8-.5-.1-.8-.4-.8-.8zm0-4.5c0-.4.3-.8.8-.8.4 0 .8.3.8.8 0 .4-.3.8-.8.8s-.8-.4-.8-.8zm0-4.4c0-.4.3-.8.8-.8.4 0 .8.3.8.8 0 .4-.3.8-.8.8s-.8-.4-.8-.8zm0-4.4c0-.4.3-.8.8-.8.4 0 .8.3.8.8 0 .4-.3.8-.8.8-.5-.1-.8-.4-.8-.8zm0-4.5c0-.4.3-.8.8-.8.4 0 .8.3.8.8 0 .4-.3.8-.8.8s-.8-.4-.8-.8zm0-4.4c0-.4.3-.8.8-.8.4 0 .8.3.8.8 0 .4-.3.8-.8.8s-.8-.4-.8-.8zm0-4.4c0-.4.3-.8.8-.8.4 0 .8.3.8.8 0 .4-.3.8-.8.8-.5-.1-.8-.4-.8-.8zm0-4.5c0-.4.3-.8.8-.8.4 0 .8.3.8.8 0 .4-.3.8-.8.8s-.8-.3-.8-.8zm0-4.4c0-.4.3-.8.8-.8.4 0 .8.3.8.8 0 .4-.3.8-.8.8s-.8-.4-.8-.8zm0-4.4c0-.4.3-.8.8-.8.4 0 .8.3.8.8 0 .4-.3.8-.8.8-.5-.1-.8-.4-.8-.8zm0-4.4c0-.4.3-.8.8-.8.4 0 .8.3.8.8 0 .4-.3.8-.8.8-.5-.1-.8-.4-.8-.8zm0-4.5c0-.4.3-.8.8-.8.4 0 .8.3.8.8 0 .4-.3.8-.8.8s-.8-.4-.8-.8zm.7 98.2c-.2 0-.4-.1-.5-.2-.1-.1-.2-.3-.2-.5s.1-.4.2-.5c.3-.3.8-.3 1.1 0 .1.1.2.3.2.5s-.1.4-.2.5c-.2.2-.4.2-.6.2z"/><path fill="#F4B400" d="M1447.9 442.1h-9.4l3-9.9h9.4m28.4 12.7h-9.3l3-9.9h9.3"/><path fill="#FF5722" d="M1474.6 438.3h-9.4l3-9.9h9.4"/><path fill="#4DB6AC" d="M1490.9 438.3h9.4l3-9.9h-9.4"/><path fill="#F4B400" d="M1475.2 425h9.4l3-9.8h-9.4"/><path fill="#FF5722" d="M1436.1 418.4h-7l-3 9.8h9.4l1.8-5.7h-2.5"/><path fill="#F4B400" d="M1436.1 418.4h2.4l-1.2 4.1h6.9l3-9.9h-9.4"/><path fill="#F4B400" d="M1436.1 418.4l-1.3 4.1h2.5l1.2-4.1"/><path fill="#FF5722" d="M1503.3 405.7h-9.4l-3 9.8h9.4"/><path fill="#4DB6AC" d="M1423.5 446.3h9.4l3-9.9h-9.4"/><path fill="#8D6E63" d="M1549.7 412.4c.2-.2.5-.3.8-.5-.3.2-.5.3-.8.5zm5.5-1.1c1.2.1 2.2.4 3 .9-.8-.5-1.8-.8-3-.9zm-4.6.5c.2-.1.4-.2.7-.3-.2.1-.4.2-.7.3zm3.1-.6c-.4 0-.7 0-1.1.1.3-.1.7-.1 1.1-.1zm-2.1.3c.2-.1.5-.1.7-.2-.2.1-.5.1-.7.2z"/><path d="M1552.3 411.3c.1 0 .2 0 .3-.1-.1.1-.2.1-.3.1zm-1 .3c.1 0 .2-.1.3-.1-.1 0-.2 0-.3.1zm-.8.3c.1 0 .1 0 .2-.1-.1.1-.2.1-.2.1zm3.2-.7c.6 0 1.1 0 1.6.1-.6-.1-1.1-.1-1.6-.1z"/><path fill="#F4B400" d="M1554.2 440c6.6.3 15.7.9 18.1 7s5.2 14.8 6.2 19.6-9.5 15-9.5 15l-.1 9.8h-28.7l.8-26.7c-.1-8.3-1.9-25.5 13.2-24.7z"/><path fill="#8D6E63" d="M1561.9 422.6c.3-5.3-.6-11.5-8.3-11.4-10.3.1-7.2 17.1-4.6 21.4 2.9 4.7 1.5 7.5 1.5 7.5s.9 2 4.2 2.3c2.5.2 4.8-2.2 4.8-2.2s-1.2-1.2-.7-5.5c.8-4.9 2.6-4.6 3.1-12.1z"/><path d="M1540.3 491.4s-2.8 19.6-1.7 37.4c.7 11.3 3.9 30.9 2.3 33.4-1.7 2.5-6.5 2.5-6.5 5.6h14.5c.8-12.4.1-12.3-.1-29.6 0-5 1.6-18.9 2.6-24.1.4-2 3.3-2 3.6 0 1 5.4 2.1 19.2 2.1 21.3.2 4.1 5.6 23.6 3.3 26.8-2.5 3.5-5.9 2.6-5.9 5.5h13.6s-.1-18.6-.7-29.5c-.9-15.2 2.2-24.3 1.6-46.9l-28.7.1zm13.4-80.2c-3.3 0-5.2 1.8-6.2 4.3 1.9.7 5.1 1.6 8.2 1.1l.8 5.8s2.1-2.8 2.8-.1c.7 2.6-1 5.2-1 5.2l1.5 3.7c1-2.1 1.8-4.2 2.1-8.7.4-5.2-.5-11.4-8.2-11.3z"/><path fill="#F4B400" d="M1550.6 440.1s-14.7.8-21.7-1.6-21.8-19.5-21.8-19.5l-4.6 5.2s14.5 16.3 20 19.6c5.4 3.3 18.6 7.9 18.4 17.9s9.7-21.6 9.7-21.6z"/><path fill="#8D6E63" d="M1507.1 419s-4.1-4-6.3-2.9-1.2 5.1 1.7 8.2l4.6-5.3zm44 61.7s-5.5 1.6-5.6 4.1c-.1 2.5 3.9 3.5 8 2.4l-2.4-6.5z"/><path fill="#FF5722" d="M1307.8 537.8c1.8-8.4-1.1-11.2-1.7-24-.6-12.1-.9-15.1 3.9-23.2h20.2c.6 6.1.6 6.3 3.9 17.3 3.4 11.3 4.7 16.9 3.9 23.8-.8 6.9-2.8 15.2-3.9 20.9s-.9 8.8 3.3 10.4 5.6 4.8 5.6 4.8h-17.2s1-13.8 1.6-23.1c.6-9.4 2.5-9.3-.6-17-3.1-7.7-5.2-16.1-5.2-16.1s-1.4 18.8-4.2 25.7c-3 7.3-11.8 24.7-4.5 26.4 5.4 1.3 5.6 4.1 5.6 4.1h-16.1s1.2-7.1 1.3-16.6c.2-9.5 3.3-9.6 4.1-13.4z"/><path d="M1319.9 463.9s-2.7 13-2.3 20.9 6.3 19.5 6.3 19.5l-4 2.9s-10.4-13.6-10.6-21.7 1.8-25.9 1.8-25.9l8.8 4.3z"/><path fill="#FF7043" d="M1323.9 504.3s2.6 4.4.5 5.9-4.5-3-4.5-3l4-2.9z"/><path d="M1325.3 452.1s11.3 1.1 18.2-2.7c6.9-3.8 16.1-14.8 16.1-14.8l3.8 2.6s-8.5 15.5-15.7 19.3c-7.2 3.8-18.3 6.1-18.3 6.1l-4.1-10.5z"/><path fill="#FF7043" d="M1359.6 434.6s2.5-4.8 4.7-3.6c2.3 1.2-.9 6.2-.9 6.2l-3.8-2.6z"/><path d="M1317.4 438.8s-6.3-1-9.3 6.9c-3 8 2.1 22.1-3.6 25.4 0 0 9.8-3.7 9.9-14.2s4.1-16.5 4.1-16.5l-1.1-1.6z"/><path d="M1317.7 450c3.7-.1 5-.1 7.6 2 4.5 3.6 11.3 11.8 10.9 15.5-.8 5.9-7.3 7.5-5.8 23h-20.2c7.7-13-7.8-30.8 7.5-40.5z"/><path fill="#FF7043" d="M1318.2 432.7c1.1-4.8 5.3-10.2 11.6-5.1 3.4 2.8 2.3 13.5-2.5 16.9-2.5 1.8-2.1 7.5-2.1 7.5s-.8 1.2-3.9.8c-2.3-.3-3.7-2.8-3.7-2.8s1.1-1 1.4-5c.4-4.5-2.3-5.5-.8-12.3z"/><path d="M1317.7 430.2c2.3-4.9 4.9-6.2 8.7-5.8s4.8-.4 5.3 2.9c.3 2.2-4 5.1-8.1 8.5-2.5 2-3.8 5.4-5.4 4.5-1.8-.9-1.8-7.3-.5-10.1zm-15.3 137.6h16.1s-.2-2.8-5.6-4.1c-3.1-.7-3.3-4.3-2.3-8.6h-7c-.3 7.5-1.2 12.7-1.2 12.7zm23.4 0h17.2s-1.4-3.2-5.6-4.8c-3.6-1.4-4.2-3.8-3.7-8h-7c-.4 6.8-.9 12.8-.9 12.8zm-519.2 612h2.2v62.4h-2.2zm94 0h2.2v62.4h-2.2z"/><path d="M798.3 1178.7h112.8v2.2H798.3z"/><path fill="#FF5722" d="M835.2 1140.2s-10.9-6.8-1.1-19.8c0 0-1.1 7.1 4 5.4s-1.2-11.4 1.4-16.8 6.1-6.8 6.1-6.8-1.6 6.4 2.4 5.5 2.2-10.7 10.6-13.8c8.1-3 6.1-9.3 6.1-9.3s8 4.9 4.2 14.9 3.9 10.6 6.4 7.4c0 0 1 6.8-3.4 9.1s-3.4 8.9 1.8 7.9c3.8-.7 4.6-5 4.6-5s8.8 12.9-3.5 21.2h-39.6z"/><path fill="#F4B400" d="M846.5 1140.1s-6.8-4.9-3.4-11.5c0 0 2.4 3.5 4.2-.7s-2.4-7.1 2.3-11.6c0 0 1.1 2.9 4.2 0s-.6-9.6 6.9-12.1c0 0-2.9 4.7 0 6.6s3.8 5.4 2.4 7.8-1.8 7.5.2 7 2.2-2.6 2.2-2.6 2.6 3.8.7 6.6.8 4.8 3.2 3.5c0 0-.6 5.1-5.6 7.1h-17.3z"/><path d="M883.6 1174.9H826v-32.8c0-1.6 1.3-2.9 2.9-2.9h51.9c1.6 0 2.9 1.3 2.9 2.9v32.8z"/><path fill="#FF5722" d="M829.4 1142.8h50.7v28.5h-50.7z"/><path d="M885.1 1178.7h-60.8c-1.4 0-2.5-1.1-2.5-2.5v-.8c0-.3.2-.5.5-.5h64.8c.3 0 .5.2.5.5v.8c0 1.4-1.1 2.5-2.5 2.5z"/><path fill="#FFF" d="M862.2 1164.4h-15c-.2 0-.4-.1-.5-.3-.1-.2-.1-.4 0-.6l7.5-13.5c.1-.2.3-.3.5-.3s.4.1.5.3l7.5 13.5c.1.2.1.4 0 .6-.1.2-.3.3-.5.3zm-14-1.1h13.1l-6.5-11.8-6.6 11.8z"/><path fill="#FFF" d="M854 1155.6h1.5v3.8H854z"/><circle fill="#FFF" cx="854.7" cy="1161.4" r=".9"/><g fill="#FFF"><path d="M1070.668 846.527l2.18.733-132.888 395.37-2.18-.734zm56 .008l2.18.733-132.89 395.37-2.18-.733z"/><path d="M1059.7 881.7h56v2.2h-56zm-12.1 35.9h56v2.2h-56zm-12.1 35.9h56v2.2h-56zm-12 36h56v2.2h-56zm-12.1 35.9h56v2.2h-56zm-12.1 36h56v2.2h-56zm-12.1 35.9h56v2.2h-56zm-12 36h56v2.2h-56zm-12.1 35.9h56v2.2h-56zm-12.1 36h56v2.2h-56z"/></g><circle fill="#FFF" cx="1695.6" cy="736.2" r="4.4"/><path d="M1729.1 754.9l-2.2-.7 13.3-41.5-38.1 13.8-.8-2.1 42.4-15.4"/><path d="M1696.82 712.295l9.563 2.562-4.943 18.45-9.562-2.564z"/><path d="M1706.4 739.1c1.6-5.9-1.9-12.1-7.9-13.7-5.9-1.6-12.1 1.9-13.7 7.9l21.6 5.8z"/><circle cx="1742" cy="710.8" r="3.5"/><g fill="#F4B400"><path d="M1598 754.5h144v73.2h-144z"/><path d="M1743.1 828.9h-146.2v-75.5h146.2v75.5zm-144-2.3h141.7v-71h-141.7v71z"/></g><path fill="#F4B400" d="M1596.8 827.8h2.2v78.6h-2.2zm144 0h2.2v78.6h-2.2z"/><path fill="#FFF" d="M1619 765.3h102v51.6h-102z"/><path d="M1647.4 800.6h-19v-19h19v19zm-17.5-1.5h16v-16h-16v16zm72.1 1.5c-5.2 0-9.5-4.3-9.5-9.5s4.3-9.5 9.5-9.5 9.5 4.3 9.5 9.5-4.2 9.5-9.5 9.5zm0-17.4c-4.4 0-8 3.6-8 8s3.6 8 8 8 8-3.6 8-8-3.6-8-8-8zm-14.2 42.2s12.3 27.4 12.2 37c0 9.5-12.6 33.2-13.9 36.5-1.3 3.3 2.8 4.2 2.6 7.5H1677s11.2-27.4 10.7-38.9c-.6-11.4-7.7-18.3-14.6-21-6.9-2.7-20.1 0-21.1 6.2-.9 5.6 7.5 31.5 11.2 40.4h-15.7s6.4-4.9 5.6-7.8c-.8-2.9-11.4-23.3-13-29.9s1-16.9 11.6-30h36.1zm-25.1-52.5c0 4.7 1 8.4 5.7 8.4s5.7-3.8 5.7-8.4-2.6-8.4-5.7-8.4-5.7 3.8-5.7 8.4z"/><path fill="#FFF" d="M1654.6 840.2h27.2v7.9h-27.2z"/><path fill="#FFF" d="M1659.605 845.737l2.183.272-7.51 60.43-2.182-.27zm17.245.038l7.496 60.437-2.184.27-7.496-60.437z"/><path fill="#FFF" d="M1655.6 892h25.2v2.2h-25.2z"/><path fill="#FF5722" d="M1651.8 825.4s-.5-9.6-.3-15.2-1.6-31.7 6.3-35.5c7.4-3.6 17.6-3.2 23.9.9s5 23.5 5.7 32.2c.4 5.6.4 17.7.4 17.7h-36z"/><path fill="#FF5722" d="M1656.8 775.3c-3.8 2.6-12.6 6.4-16.2 23.9-.9 4.2 7 .9 11.2.6 4.2-.3 10.5-2.4 10.5-2.4l-5.9-9c.1 0 4.2-15.7.4-13.1zm25 .2c3.8 2.6 13.3 7.1 16.9 24.5.9 4.2-7 .9-11.2.6-4.2-.3-10.5-2.4-10.5-2.4l5.9-9c-.1.1-4.9-16.3-1.1-13.7z"/><path fill="#FFF" d="M1799 889.6l4.1-3.2 8 6.5-1.3 8.1-7.9 3.8-4.1-4.9-3.2-2.1m-21.3-3.7l.6-5.2 10.2-1.1 4.8 6.7-2.9 8.3-6.4-.5-3.7.6"/><path fill="#FFF" d="M1794.4 879.6l.8-4.6 9.2-1.5 3.9 5.8-3 7.5-5.6-.2-3.4.8"/><path fill="#FFF" d="M1807.1 873.9h-4.7l-2.8-8.9 5.1-4.8 7.9 1.9.6 5.6 1.3 3.2m-40.5 5.7l3.9-2.7 7.4 5.6-1.3 6.8-7.4 3.1-3.9-4.1-2.9-1.9"/><path fill="#FFF" d="M1781.4 865.5l3.7-5 11.7 3.7 1.3 9.1-7.9 7-6.6-3.4-4.4-1.1m7.8 13.2l.4-3.8 7.4-.8 3.5 4.9-2.1 6-4.6-.4-2.7.5"/><path fill="#FFF" d="M1792.1 855.9l.5-4.8 9.4-.9 4.3 6.1-2.6 7.5-5.8-.5-3.4.6"/><path fill="#FFF" d="M1803.2 843.9l2.2-4.6 9.9 2.2 2.3 7.8-5.3 6.7-5.7-2.5-3.7-.5m-30.7 20.4l-3.7-1 .3-7.5 5.4-2.7 5.6 3-1.1 4.5.1 2.8m10.3-33.6l-3.6-1 .3-7.4 5.3-2.7 5.6 2.9-1 4.5.1 2.8m-72.7 69.1l-3.7-1 .3-7.5 5.4-2.7 5.6 3-1.1 4.5.1 2.7m95.8 1.9l-2.7-.7.2-5.6 4.1-2 4.2 2.2-.8 3.4v2m-73.2-.6l2.5.7 3.9-3.5-1.4-4.4-4.7-1.4-1.8 3-1.6 1.5m41.2-50.3l-3.4 1.7-4.7-5.8 2.2-5.6 6.2-1.5 2.2 4.1 1.9 2m-25 4.4l-3.9 2-5.4-6.7 2.5-6.4 7.1-1.7 2.5 4.7 2.2 2.2"/><path fill="#FFF" d="M1788.7 837.8l3.4 2.8-3.8 7.7-6.9.4-4.5-5.7 3.2-4.3 1.2-3m22.5-4.6l4.9.4 1.3 9.5-6 4.6-7.7-2.4.2-5.9-.8-3.4m-16.8 30.6l-5.1.2-2.5-9.8 5.8-5.6 8.4 1.6.4 6.3 1.2 3.5m1 39.6l-.3-2.6 4.8-1.8 3.1 2.7-.4 4.3-3.1.5-1.7.8"/><defs><path id="a" d="M1817.7 846.2h-53.2l7.5 56.9h38.2z"/></defs><clipPath id="b"><use xlink:href="#a" overflow="visible"/></clipPath><g clip-path="url(#b)"><defs><path id="c" d="M1817.145 845.86l6.01-6.01 6.01 6.01-6.01 6.01z"/></defs><clipPath id="d"><use xlink:href="#c" overflow="visible"/></clipPath><path clip-path="url(#d)" fill="none" stroke="#000" stroke-width=".597" stroke-miterlimit="10" d="M1817.3 839.9l11.8 11.8m-11.8 0l11.8-11.8"/><path transform="rotate(-45 1823.165 845.85)" clip-path="url(#d)" fill="none" d="M1818.9 841.6h8.5v8.5h-8.5z"/></g><g clip-path="url(#b)"><defs><path id="e" d="M1805.05 845.876l6.012-6.01 6.01 6.01-6.01 6.01z"/></defs><clipPath id="f"><use xlink:href="#e" overflow="visible"/></clipPath><path clip-path="url(#f)" fill="none" stroke="#000" stroke-width=".597" stroke-miterlimit="10" d="M1805.2 839.9l11.8 11.8m-11.8 0l11.8-11.8"/><path transform="rotate(-45 1811.088 845.85)" clip-path="url(#f)" fill="none" d="M1806.8 841.6h8.5v8.5h-8.5z"/></g><g clip-path="url(#b)"><defs><path id="g" d="M1811.106 851.844l6.01-6.01 6.01 6.01-6.01 6.01z"/></defs><clipPath id="h"><use xlink:href="#g" overflow="visible"/></clipPath><path clip-path="url(#h)" fill="none" stroke="#000" stroke-width=".597" stroke-miterlimit="10" d="M1811.2 846l11.8 11.8m-11.8 0L1823 846"/><path transform="rotate(-45 1817.126 851.888)" clip-path="url(#h)" fill="none" d="M1812.9 847.6h8.5v8.5h-8.5z"/></g><g clip-path="url(#b)"><defs><path id="i" d="M1817.09 857.883l6.01-6.01 6.01 6.01-6.01 6.01z"/></defs><clipPath id="j"><use xlink:href="#i" overflow="visible"/></clipPath><path clip-path="url(#j)" fill="none" stroke="#000" stroke-width=".597" stroke-miterlimit="10" d="M1817.3 852l11.8 11.8m-11.8 0l11.8-11.8"/><path transform="rotate(-45 1823.165 857.927)" clip-path="url(#j)" fill="none" d="M1818.9 853.6h8.5v8.5h-8.5z"/></g><g clip-path="url(#b)"><defs><path id="k" d="M1792.958 845.892l6.01-6.01 6.01 6.01-6.01 6.01z"/></defs><clipPath id="l"><use xlink:href="#k" overflow="visible"/></clipPath><path clip-path="url(#l)" fill="none" stroke="#000" stroke-width=".597" stroke-miterlimit="10" d="M1793.1 839.9l11.8 11.8m-11.8 0l11.8-11.8"/><path transform="rotate(-45 1799.01 845.85)" clip-path="url(#l)" fill="none" d="M1794.7 841.6h8.5v8.5h-8.5z"/></g><g clip-path="url(#b)"><defs><path id="m" d="M1799.013 851.86l6.01-6.01 6.01 6.01-6.01 6.01z"/></defs><clipPath id="n"><use xlink:href="#m" overflow="visible"/></clipPath><path clip-path="url(#n)" fill="none" stroke="#000" stroke-width=".597" stroke-miterlimit="10" d="M1799.1 846l11.9 11.8m-11.9 0L1811 846"/><path transform="rotate(-45 1805.05 851.888)" clip-path="url(#n)" fill="none" d="M1800.8 847.6h8.5v8.5h-8.5z"/></g><g clip-path="url(#b)"><defs><path id="o" d="M1804.996 857.9l6.01-6.01 6.01 6.01-6.01 6.01z"/></defs><clipPath id="p"><use xlink:href="#o" overflow="visible"/></clipPath><path clip-path="url(#p)" fill="none" stroke="#000" stroke-width=".597" stroke-miterlimit="10" d="M1805.2 852l11.8 11.8m-11.8 0L1817 852"/><path transform="rotate(-45 1811.087 857.927)" clip-path="url(#p)" fill="none" d="M1806.8 853.6h8.5v8.5h-8.5z"/></g><g clip-path="url(#b)"><defs><path id="q" d="M1811.122 863.938l6.01-6.01 6.01 6.01-6.01 6.01z"/></defs><clipPath id="r"><use xlink:href="#q" overflow="visible"/></clipPath><path clip-path="url(#r)" fill="none" stroke="#000" stroke-width=".597" stroke-miterlimit="10" d="M1811.2 858l11.8 11.9m-11.8 0L1823 858"/><path transform="rotate(-45 1817.126 863.966)" clip-path="url(#r)" fill="none" d="M1812.9 859.7h8.5v8.5h-8.5z"/></g><g clip-path="url(#b)"><defs><path id="s" d="M1817.105 869.977l6.01-6.01 6.01 6.01-6.01 6.01z"/></defs><clipPath id="t"><use xlink:href="#s" overflow="visible"/></clipPath><path clip-path="url(#t)" fill="none" stroke="#000" stroke-width=".597" stroke-miterlimit="10" d="M1817.3 864.1l11.8 11.8m-11.8 0l11.8-11.8"/><path transform="rotate(-45 1823.165 870.005)" clip-path="url(#t)" fill="none" d="M1818.9 865.7h8.5v8.5h-8.5z"/></g><g clip-path="url(#b)"><defs><path id="u" d="M1780.935 845.837l6.01-6.01 6.01 6.01-6.01 6.01z"/></defs><clipPath id="v"><use xlink:href="#u" overflow="visible"/></clipPath><path clip-path="url(#v)" fill="none" stroke="#000" stroke-width=".597" stroke-miterlimit="10" d="M1781 839.9l11.8 11.8m-11.8 0l11.8-11.8"/><path transform="rotate(-45 1786.932 845.85)" clip-path="url(#v)" fill="none" d="M1782.7 841.6h8.5v8.5h-8.5z"/></g><g clip-path="url(#b)"><defs><path id="w" d="M1786.92 851.876l6.01-6.01 6.01 6.01-6.01 6.01z"/></defs><clipPath id="x"><use xlink:href="#w" overflow="visible"/></clipPath><path clip-path="url(#x)" fill="none" stroke="#000" stroke-width=".597" stroke-miterlimit="10" d="M1787.1 846l11.8 11.8m-11.8 0l11.8-11.8"/><path transform="rotate(-45 1792.97 851.888)" clip-path="url(#x)" fill="none" d="M1788.7 847.6h8.5v8.5h-8.5z"/></g><g clip-path="url(#b)"><defs><path id="y" d="M1792.903 857.915l6.01-6.01 6.01 6.01-6.01 6.01z"/></defs><clipPath id="z"><use xlink:href="#y" overflow="visible"/></clipPath><path clip-path="url(#z)" fill="none" stroke="#000" stroke-width=".597" stroke-miterlimit="10" d="M1793.1 852l11.8 11.8m-11.8 0l11.8-11.8"/><path transform="rotate(-45 1799.01 857.927)" clip-path="url(#z)" fill="none" d="M1794.7 853.6h8.5v8.5h-8.5z"/></g><g clip-path="url(#b)"><defs><path id="A" d="M1799.028 863.954l6.01-6.01 6.01 6.01-6.01 6.01z"/></defs><clipPath id="B"><use xlink:href="#A" overflow="visible"/></clipPath><path clip-path="url(#B)" fill="none" stroke="#000" stroke-width=".597" stroke-miterlimit="10" d="M1799.1 858l11.9 11.9m-11.9 0L1811 858"/><path transform="rotate(-45 1805.05 863.966)" clip-path="url(#B)" fill="none" d="M1800.8 859.7h8.5v8.5h-8.5z"/></g><g clip-path="url(#b)"><defs><path id="C" d="M1805.012 869.992l6.01-6.01 6.01 6.01-6.01 6.01z"/></defs><clipPath id="D"><use xlink:href="#C" overflow="visible"/></clipPath><path clip-path="url(#D)" fill="none" stroke="#000" stroke-width=".597" stroke-miterlimit="10" d="M1805.2 864.1l11.8 11.8m-11.8 0l11.8-11.8"/><path transform="rotate(-45 1811.087 870.005)" clip-path="url(#D)" fill="none" d="M1806.8 865.7h8.5v8.5h-8.5z"/></g><g clip-path="url(#b)"><defs><path id="E" d="M1811.067 875.96l6.01-6.01 6.01 6.01-6.01 6.01z"/></defs><clipPath id="F"><use xlink:href="#E" overflow="visible"/></clipPath><path clip-path="url(#F)" fill="none" stroke="#000" stroke-width=".597" stroke-miterlimit="10" d="M1811.2 870.1l11.8 11.8m-11.8 0l11.8-11.8"/><path transform="rotate(-45 1817.126 876.043)" clip-path="url(#F)" fill="none" d="M1812.9 871.7h8.5v8.5h-8.5z"/></g><g clip-path="url(#b)"><defs><path id="G" d="M1817.12 882.07l6.01-6.01 6.012 6.01-6.01 6.01z"/></defs><clipPath id="H"><use xlink:href="#G" overflow="visible"/></clipPath><path clip-path="url(#H)" fill="none" stroke="#000" stroke-width=".597" stroke-miterlimit="10" d="M1817.3 876.1l11.8 11.9m-11.8 0l11.8-11.9"/><path transform="rotate(-45 1823.165 882.082)" clip-path="url(#H)" fill="none" d="M1818.9 877.8h8.5v8.5h-8.5z"/></g><g clip-path="url(#b)"><defs><path id="I" d="M1768.842 845.853l6.01-6.01 6.01 6.01-6.01 6.01z"/></defs><clipPath id="J"><use xlink:href="#I" overflow="visible"/></clipPath><path clip-path="url(#J)" fill="none" stroke="#000" stroke-width=".597" stroke-miterlimit="10" d="M1768.9 839.9l11.9 11.8m-11.9 0l11.9-11.8"/><path transform="rotate(-45 1774.855 845.85)" clip-path="url(#J)" fill="none" d="M1770.6 841.6h8.5v8.5h-8.5z"/></g><g clip-path="url(#b)"><defs><path id="K" d="M1774.826 851.892l6.01-6.01 6.01 6.01-6.01 6.01z"/></defs><clipPath id="L"><use xlink:href="#K" overflow="visible"/></clipPath><path clip-path="url(#L)" fill="none" stroke="#000" stroke-width=".597" stroke-miterlimit="10" d="M1775 846l11.8 11.8m-11.8 0l11.8-11.8"/><path transform="rotate(-45 1780.893 851.888)" clip-path="url(#L)" fill="none" d="M1776.6 847.6h8.5v8.5h-8.5z"/></g><g clip-path="url(#b)"><defs><path id="M" d="M1780.88 857.86l6.01-6.01 6.01 6.01-6.01 6.01z"/></defs><clipPath id="N"><use xlink:href="#M" overflow="visible"/></clipPath><path clip-path="url(#N)" fill="none" stroke="#000" stroke-width=".597" stroke-miterlimit="10" d="M1781 852l11.8 11.8m-11.8 0l11.8-11.8"/><path transform="rotate(-45 1786.932 857.927)" clip-path="url(#N)" fill="none" d="M1782.7 853.6h8.5v8.5h-8.5z"/></g><g clip-path="url(#b)"><defs><path id="O" d="M1786.935 863.97l6.01-6.01 6.01 6.01-6.01 6.01z"/></defs><clipPath id="P"><use xlink:href="#O" overflow="visible"/></clipPath><path clip-path="url(#P)" fill="none" stroke="#000" stroke-width=".597" stroke-miterlimit="10" d="M1787.1 858l11.8 11.9m-11.8 0l11.8-11.9"/><path transform="rotate(-45 1792.97 863.965)" clip-path="url(#P)" fill="none" d="M1788.7 859.7h8.5v8.5h-8.5z"/></g><g clip-path="url(#b)"><defs><path id="Q" d="M1792.92 870.008l6.01-6.01 6.01 6.01-6.01 6.01z"/></defs><clipPath id="R"><use xlink:href="#Q" overflow="visible"/></clipPath><path clip-path="url(#R)" fill="none" stroke="#000" stroke-width=".597" stroke-miterlimit="10" d="M1793.1 864.1l11.8 11.8m-11.8 0l11.8-11.8"/><path transform="rotate(-45 1799.01 870.004)" clip-path="url(#R)" fill="none" d="M1794.7 865.7h8.5v8.5h-8.5z"/></g><g clip-path="url(#b)"><defs><path id="S" d="M1798.973 875.976l6.01-6.01 6.01 6.01-6.01 6.01z"/></defs><clipPath id="T"><use xlink:href="#S" overflow="visible"/></clipPath><path clip-path="url(#T)" fill="none" stroke="#000" stroke-width=".597" stroke-miterlimit="10" d="M1799.1 870.1l11.9 11.8m-11.9 0l11.9-11.8"/><path transform="rotate(-45 1805.05 876.043)" clip-path="url(#T)" fill="none" d="M1800.8 871.7h8.5v8.5h-8.5z"/></g><g clip-path="url(#b)"><defs><path id="U" d="M1805.028 882.086l6.01-6.01 6.01 6.01-6.01 6.01z"/></defs><clipPath id="V"><use xlink:href="#U" overflow="visible"/></clipPath><path clip-path="url(#V)" fill="none" stroke="#000" stroke-width=".597" stroke-miterlimit="10" d="M1805.2 876.1L1817 888m-11.8 0l11.8-11.9"/><path transform="rotate(-45 1811.087 882.082)" clip-path="url(#V)" fill="none" d="M1806.8 877.8h8.5v8.5h-8.5z"/></g><g clip-path="url(#b)"><defs><path id="W" d="M1811.082 888.054l6.01-6.01 6.01 6.01-6.01 6.01z"/></defs><clipPath id="X"><use xlink:href="#W" overflow="visible"/></clipPath><path clip-path="url(#X)" fill="none" stroke="#000" stroke-width=".597" stroke-miterlimit="10" d="M1811.2 882.2L1823 894m-11.8 0l11.8-11.8"/><path transform="rotate(-45 1817.126 888.12)" clip-path="url(#X)" fill="none" d="M1812.9 883.8h8.5v8.5h-8.5z"/></g><g clip-path="url(#b)"><defs><path id="Y" d="M1817.137 894.163l6.01-6.01 6.01 6.01-6.01 6.01z"/></defs><clipPath id="Z"><use xlink:href="#Y" overflow="visible"/></clipPath><path clip-path="url(#Z)" fill="none" stroke="#000" stroke-width=".597" stroke-miterlimit="10" d="M1817.3 888.2l11.8 11.8m-11.8 0l11.8-11.8"/><path transform="rotate(-45 1823.165 894.16)" clip-path="url(#Z)" fill="none" d="M1818.9 889.9h8.5v8.5h-8.5z"/></g><g clip-path="url(#b)"><defs><path id="aa" d="M1756.75 845.87l6.01-6.012 6.01 6.01-6.01 6.01z"/></defs><clipPath id="ab"><use xlink:href="#aa" overflow="visible"/></clipPath><path clip-path="url(#ab)" fill="none" stroke="#000" stroke-width=".597" stroke-miterlimit="10" d="M1756.9 839.9l11.8 11.8m-11.8 0l11.8-11.8"/><path transform="rotate(-45 1762.777 845.85)" clip-path="url(#ab)" fill="none" d="M1758.5 841.6h8.5v8.5h-8.5z"/></g><g clip-path="url(#b)"><defs><path id="ac" d="M1762.732 851.907l6.01-6.01 6.01 6.01-6.01 6.01z"/></defs><clipPath id="ad"><use xlink:href="#ac" overflow="visible"/></clipPath><path clip-path="url(#ad)" fill="none" stroke="#000" stroke-width=".597" stroke-miterlimit="10" d="M1762.9 846l11.8 11.8m-11.8 0l11.8-11.8"/><path transform="rotate(-45 1768.816 851.888)" clip-path="url(#ad)" fill="none" d="M1764.5 847.6h8.5v8.5h-8.5z"/></g><g clip-path="url(#b)"><defs><path id="ae" d="M1768.787 857.875l6.01-6.01 6.01 6.01-6.01 6.01z"/></defs><clipPath id="af"><use xlink:href="#ae" overflow="visible"/></clipPath><path clip-path="url(#af)" fill="none" stroke="#000" stroke-width=".597" stroke-miterlimit="10" d="M1768.9 852l11.9 11.8m-11.9 0l11.9-11.8"/><path transform="rotate(-45 1774.854 857.926)" clip-path="url(#af)" fill="none" d="M1770.6 853.6h8.5v8.5h-8.5z"/></g><g clip-path="url(#b)"><defs><path id="ag" d="M1774.84 863.985l6.012-6.01 6.01 6.01-6.01 6.01z"/></defs><clipPath id="ah"><use xlink:href="#ag" overflow="visible"/></clipPath><path clip-path="url(#ah)" fill="none" stroke="#000" stroke-width=".597" stroke-miterlimit="10" d="M1775 858l11.8 11.9m-11.8 0l11.8-11.9"/><path transform="rotate(-45 1780.893 863.965)" clip-path="url(#ah)" fill="none" d="M1776.6 859.7h8.5v8.5h-8.5z"/></g><g clip-path="url(#b)"><defs><path id="ai" d="M1780.896 869.953l6.01-6.01 6.01 6.01-6.01 6.01z"/></defs><clipPath id="aj"><use xlink:href="#ai" overflow="visible"/></clipPath><path clip-path="url(#aj)" fill="none" stroke="#000" stroke-width=".597" stroke-miterlimit="10" d="M1781 864.1l11.8 11.8m-11.8 0l11.8-11.8"/><path transform="rotate(-45 1786.932 870.004)" clip-path="url(#aj)" fill="none" d="M1782.7 865.7h8.5v8.5h-8.5z"/></g><g clip-path="url(#b)"><defs><path id="ak" d="M1786.88 875.992l6.01-6.01 6.01 6.01-6.01 6.01z"/></defs><clipPath id="al"><use xlink:href="#ak" overflow="visible"/></clipPath><path clip-path="url(#al)" fill="none" stroke="#000" stroke-width=".597" stroke-miterlimit="10" d="M1787.1 870.1l11.8 11.8m-11.8 0l11.8-11.8"/><path transform="rotate(-45 1792.97 876.043)" clip-path="url(#al)" fill="none" d="M1788.7 871.7h8.5v8.5h-8.5z"/></g><g clip-path="url(#b)"><defs><path id="am" d="M1792.934 882.102l6.01-6.01 6.01 6.01-6.01 6.01z"/></defs><clipPath id="an"><use xlink:href="#am" overflow="visible"/></clipPath><path clip-path="url(#an)" fill="none" stroke="#000" stroke-width=".597" stroke-miterlimit="10" d="M1793.1 876.1l11.8 11.9m-11.8 0l11.8-11.9"/><path transform="rotate(-45 1799.01 882.082)" clip-path="url(#an)" fill="none" d="M1794.7 877.8h8.5v8.5h-8.5z"/></g><g clip-path="url(#b)"><defs><path id="ao" d="M1798.99 888.07l6.01-6.01 6.01 6.01-6.01 6.01z"/></defs><clipPath id="ap"><use xlink:href="#ao" overflow="visible"/></clipPath><path clip-path="url(#ap)" fill="none" stroke="#000" stroke-width=".597" stroke-miterlimit="10" d="M1799.1 882.2L1811 894m-11.9 0l11.9-11.8"/><path transform="rotate(-45 1805.048 888.12)" clip-path="url(#ap)" fill="none" d="M1800.8 883.8h8.5v8.5h-8.5z"/></g><g clip-path="url(#b)"><defs><path id="aq" d="M1805.043 894.18l6.01-6.01 6.01 6.01-6.01 6.01z"/></defs><clipPath id="ar"><use xlink:href="#aq" overflow="visible"/></clipPath><path clip-path="url(#ar)" fill="none" stroke="#000" stroke-width=".597" stroke-miterlimit="10" d="M1805.2 888.2L1817 900m-11.8 0l11.8-11.8"/><path transform="rotate(-45 1811.087 894.16)" clip-path="url(#ar)" fill="none" d="M1806.8 889.9h8.5v8.5h-8.5z"/></g><g clip-path="url(#b)"><defs><path id="as" d="M1811.098 900.147l6.01-6.01 6.01 6.01-6.01 6.01z"/></defs><clipPath id="at"><use xlink:href="#as" overflow="visible"/></clipPath><path clip-path="url(#at)" fill="none" stroke="#000" stroke-width=".597" stroke-miterlimit="10" d="M1811.2 894.3l11.8 11.8m-11.8 0l11.8-11.8"/><path transform="rotate(-45 1817.126 900.2)" clip-path="url(#at)" fill="none" d="M1812.9 895.9h8.5v8.5h-8.5z"/></g><g clip-path="url(#b)"><defs><path id="au" d="M1756.694 857.89l6.01-6.01 6.01 6.01-6.01 6.012z"/></defs><clipPath id="av"><use xlink:href="#au" overflow="visible"/></clipPath><path clip-path="url(#av)" fill="none" stroke="#000" stroke-width=".597" stroke-miterlimit="10" d="M1756.9 852l11.8 11.8m-11.8 0l11.8-11.8"/><path transform="rotate(-45 1762.777 857.926)" clip-path="url(#av)" fill="none" d="M1758.5 853.6h8.5v8.5h-8.5z"/></g><g clip-path="url(#b)"><defs><path id="aw" d="M1762.748 864l6.01-6.01 6.01 6.01-6.01 6.01z"/></defs><clipPath id="ax"><use xlink:href="#aw" overflow="visible"/></clipPath><path clip-path="url(#ax)" fill="none" stroke="#000" stroke-width=".597" stroke-miterlimit="10" d="M1762.9 858l11.8 11.9m-11.8 0l11.8-11.9"/><path transform="rotate(-45 1768.815 863.965)" clip-path="url(#ax)" fill="none" d="M1764.5 859.7h8.5v8.5h-8.5z"/></g><g clip-path="url(#b)"><defs><path id="ay" d="M1768.803 869.97l6.01-6.012 6.01 6.01-6.01 6.01z"/></defs><clipPath id="az"><use xlink:href="#ay" overflow="visible"/></clipPath><path clip-path="url(#az)" fill="none" stroke="#000" stroke-width=".597" stroke-miterlimit="10" d="M1768.9 864.1l11.9 11.8m-11.9 0l11.9-11.8"/><path transform="rotate(-45 1774.854 870.004)" clip-path="url(#az)" fill="none" d="M1770.6 865.7h8.5v8.5h-8.5z"/></g><g clip-path="url(#b)"><defs><path id="aA" d="M1774.786 876.008l6.01-6.01 6.01 6.01-6.01 6.01z"/></defs><clipPath id="aB"><use xlink:href="#aA" overflow="visible"/></clipPath><path clip-path="url(#aB)" fill="none" stroke="#000" stroke-width=".597" stroke-miterlimit="10" d="M1775 870.1l11.8 11.8m-11.8 0l11.8-11.8"/><path transform="rotate(-45 1780.893 876.043)" clip-path="url(#aB)" fill="none" d="M1776.6 871.7h8.5v8.5h-8.5z"/></g><g clip-path="url(#b)"><defs><path id="aC" d="M1780.912 882.047l6.01-6.01 6.01 6.01-6.01 6.01z"/></defs><clipPath id="aD"><use xlink:href="#aC" overflow="visible"/></clipPath><path clip-path="url(#aD)" fill="none" stroke="#000" stroke-width=".597" stroke-miterlimit="10" d="M1781 876.1l11.8 11.9m-11.8 0l11.8-11.9"/><path transform="rotate(-45 1786.932 882.082)" clip-path="url(#aD)" fill="none" d="M1782.7 877.8h8.5v8.5h-8.5z"/></g><g clip-path="url(#b)"><defs><path id="aE" d="M1786.896 888.085l6.01-6.01 6.01 6.01-6.01 6.01z"/></defs><clipPath id="aF"><use xlink:href="#aE" overflow="visible"/></clipPath><path clip-path="url(#aF)" fill="none" stroke="#000" stroke-width=".597" stroke-miterlimit="10" d="M1787.1 882.2l11.8 11.8m-11.8 0l11.8-11.8"/><path transform="rotate(-45 1792.97 888.12)" clip-path="url(#aF)" fill="none" d="M1788.7 883.8h8.5v8.5h-8.5z"/></g><g clip-path="url(#b)"><defs><path id="aG" d="M1792.95 894.195l6.01-6.01 6.01 6.01-6.01 6.01z"/></defs><clipPath id="aH"><use xlink:href="#aG" overflow="visible"/></clipPath><path clip-path="url(#aH)" fill="none" stroke="#000" stroke-width=".597" stroke-miterlimit="10" d="M1793.1 888.2l11.8 11.8m-11.8 0l11.8-11.8"/><path transform="rotate(-45 1799.01 894.16)" clip-path="url(#aH)" fill="none" d="M1794.7 889.9h8.5v8.5h-8.5z"/></g><g clip-path="url(#b)"><defs><path id="aI" d="M1799.005 900.163l6.01-6.01 6.01 6.01-6.01 6.01z"/></defs><clipPath id="aJ"><use xlink:href="#aI" overflow="visible"/></clipPath><path clip-path="url(#aJ)" fill="none" stroke="#000" stroke-width=".597" stroke-miterlimit="10" d="M1799.1 894.3l11.9 11.8m-11.9 0l11.9-11.8"/><path transform="rotate(-45 1805.048 900.2)" clip-path="url(#aJ)" fill="none" d="M1800.8 895.9h8.5v8.5h-8.5z"/></g><g clip-path="url(#b)"><defs><path id="aK" d="M1804.988 906.202l6.01-6.01 6.01 6.01-6.01 6.01z"/></defs><clipPath id="aL"><use xlink:href="#aK" overflow="visible"/></clipPath><path clip-path="url(#aL)" fill="none" stroke="#000" stroke-width=".597" stroke-miterlimit="10" d="M1805.2 900.3l11.8 11.8m-11.8 0l11.8-11.8"/><path transform="rotate(-45 1811.087 906.238)" clip-path="url(#aL)" fill="none" d="M1806.8 901.9h8.5v8.5h-8.5z"/></g><g clip-path="url(#b)"><defs><path id="aM" d="M1756.71 869.985l6.01-6.01 6.01 6.01-6.01 6.01z"/></defs><clipPath id="aN"><use xlink:href="#aM" overflow="visible"/></clipPath><path clip-path="url(#aN)" fill="none" stroke="#000" stroke-width=".597" stroke-miterlimit="10" d="M1756.9 864.1l11.8 11.8m-11.8 0l11.8-11.8"/><path transform="rotate(-45 1762.776 870.004)" clip-path="url(#aN)" fill="none" d="M1758.5 865.7h8.5v8.5h-8.5z"/></g><g clip-path="url(#b)"><defs><path id="aO" d="M1762.693 876.023l6.01-6.01 6.01 6.01-6.01 6.01z"/></defs><clipPath id="aP"><use xlink:href="#aO" overflow="visible"/></clipPath><path clip-path="url(#aP)" fill="none" stroke="#000" stroke-width=".597" stroke-miterlimit="10" d="M1762.9 870.1l11.8 11.8m-11.8 0l11.8-11.8"/><path transform="rotate(-45 1768.815 876.043)" clip-path="url(#aP)" fill="none" d="M1764.5 871.7h8.5v8.5h-8.5z"/></g><g clip-path="url(#b)"><defs><path id="aQ" d="M1768.818 882.062l6.01-6.01 6.01 6.01-6.01 6.01z"/></defs><clipPath id="aR"><use xlink:href="#aQ" overflow="visible"/></clipPath><path clip-path="url(#aR)" fill="none" stroke="#000" stroke-width=".597" stroke-miterlimit="10" d="M1768.9 876.1l11.9 11.9m-11.9 0l11.9-11.9"/><path transform="rotate(-45 1774.854 882.082)" clip-path="url(#aR)" fill="none" d="M1770.6 877.8h8.5v8.5h-8.5z"/></g><g clip-path="url(#b)"><defs><path id="aS" d="M1774.802 888.1l6.01-6.01 6.01 6.01-6.01 6.01z"/></defs><clipPath id="aT"><use xlink:href="#aS" overflow="visible"/></clipPath><path clip-path="url(#aT)" fill="none" stroke="#000" stroke-width=".597" stroke-miterlimit="10" d="M1775 882.2l11.8 11.8m-11.8 0l11.8-11.8"/><path transform="rotate(-45 1780.893 888.12)" clip-path="url(#aT)" fill="none" d="M1776.6 883.8h8.5v8.5h-8.5z"/></g><g clip-path="url(#b)"><defs><path id="aU" d="M1780.927 894.14l6.01-6.01 6.01 6.01-6.01 6.01z"/></defs><clipPath id="aV"><use xlink:href="#aU" overflow="visible"/></clipPath><path clip-path="url(#aV)" fill="none" stroke="#000" stroke-width=".597" stroke-miterlimit="10" d="M1781 888.2l11.8 11.8m-11.8 0l11.8-11.8"/><path transform="rotate(-45 1786.932 894.16)" clip-path="url(#aV)" fill="none" d="M1782.7 889.9h8.5v8.5h-8.5z"/></g><g clip-path="url(#b)"><defs><path id="aW" d="M1786.91 900.18l6.012-6.012 6.01 6.01-6.01 6.01z"/></defs><clipPath id="aX"><use xlink:href="#aW" overflow="visible"/></clipPath><path clip-path="url(#aX)" fill="none" stroke="#000" stroke-width=".597" stroke-miterlimit="10" d="M1787.1 894.3l11.8 11.8m-11.8 0l11.8-11.8"/><path transform="rotate(-45 1792.97 900.2)" clip-path="url(#aX)" fill="none" d="M1788.7 895.9h8.5v8.5h-8.5z"/></g><g clip-path="url(#b)"><defs><path id="aY" d="M1792.895 906.218l6.01-6.01 6.01 6.01-6.01 6.01z"/></defs><clipPath id="aZ"><use xlink:href="#aY" overflow="visible"/></clipPath><path clip-path="url(#aZ)" fill="none" stroke="#000" stroke-width=".597" stroke-miterlimit="10" d="M1793.1 900.3l11.8 11.8m-11.8 0l11.8-11.8"/><path transform="rotate(-45 1799.01 906.238)" clip-path="url(#aZ)" fill="none" d="M1794.7 901.9h8.5v8.5h-8.5z"/></g><g clip-path="url(#b)"><defs><path id="ba" d="M1756.725 882.078l6.01-6.01 6.01 6.01-6.01 6.01z"/></defs><clipPath id="bb"><use xlink:href="#ba" overflow="visible"/></clipPath><path clip-path="url(#bb)" fill="none" stroke="#000" stroke-width=".597" stroke-miterlimit="10" d="M1756.9 876.1l11.8 11.9m-11.8 0l11.8-11.9"/><path transform="rotate(-45 1762.776 882.082)" clip-path="url(#bb)" fill="none" d="M1758.5 877.8h8.5v8.5h-8.5z"/></g><g clip-path="url(#b)"><defs><path id="bc" d="M1762.71 888.117l6.01-6.01 6.01 6.01-6.01 6.01z"/></defs><clipPath id="bd"><use xlink:href="#bc" overflow="visible"/></clipPath><path clip-path="url(#bd)" fill="none" stroke="#000" stroke-width=".597" stroke-miterlimit="10" d="M1762.9 882.2l11.8 11.8m-11.8 0l11.8-11.8"/><path transform="rotate(-45 1768.815 888.12)" clip-path="url(#bd)" fill="none" d="M1764.5 883.8h8.5v8.5h-8.5z"/></g><g clip-path="url(#b)"><defs><path id="be" d="M1768.834 894.156l6.01-6.01 6.01 6.01-6.01 6.01z"/></defs><clipPath id="bf"><use xlink:href="#be" overflow="visible"/></clipPath><path clip-path="url(#bf)" fill="none" stroke="#000" stroke-width=".597" stroke-miterlimit="10" d="M1768.9 888.2l11.9 11.8m-11.9 0l11.9-11.8"/><path transform="rotate(-45 1774.854 894.16)" clip-path="url(#bf)" fill="none" d="M1770.6 889.9h8.5v8.5h-8.5z"/></g><g clip-path="url(#b)"><defs><path id="bg" d="M1774.818 900.194l6.01-6.01 6.01 6.01-6.01 6.01z"/></defs><clipPath id="bh"><use xlink:href="#bg" overflow="visible"/></clipPath><path clip-path="url(#bh)" fill="none" stroke="#000" stroke-width=".597" stroke-miterlimit="10" d="M1775 894.3l11.8 11.8m-11.8 0l11.8-11.8"/><path transform="rotate(-45 1780.893 900.2)" clip-path="url(#bh)" fill="none" d="M1776.6 895.9h8.5v8.5h-8.5z"/></g><g clip-path="url(#b)"><defs><path id="bi" d="M1780.872 906.163l6.01-6.01 6.01 6.01-6.01 6.01z"/></defs><clipPath id="bj"><use xlink:href="#bi" overflow="visible"/></clipPath><path clip-path="url(#bj)" fill="none" stroke="#000" stroke-width=".597" stroke-miterlimit="10" d="M1781 900.3l11.8 11.8m-11.8 0l11.8-11.8"/><path transform="rotate(-45 1786.932 906.238)" clip-path="url(#bj)" fill="none" d="M1782.7 901.9h8.5v8.5h-8.5z"/></g><g clip-path="url(#b)"><defs><path id="bk" d="M1756.74 894.17l6.01-6.01 6.01 6.01-6.01 6.012z"/></defs><clipPath id="bl"><use xlink:href="#bk" overflow="visible"/></clipPath><path clip-path="url(#bl)" fill="none" stroke="#000" stroke-width=".597" stroke-miterlimit="10" d="M1756.9 888.2l11.8 11.8m-11.8 0l11.8-11.8"/><path transform="rotate(-45 1762.776 894.16)" clip-path="url(#bl)" fill="none" d="M1758.5 889.9h8.5v8.5h-8.5z"/></g><g clip-path="url(#b)"><defs><path id="bm" d="M1762.724 900.21l6.01-6.01 6.01 6.01-6.01 6.01z"/></defs><clipPath id="bn"><use xlink:href="#bm" overflow="visible"/></clipPath><path clip-path="url(#bn)" fill="none" stroke="#000" stroke-width=".597" stroke-miterlimit="10" d="M1762.9 894.3l11.8 11.8m-11.8 0l11.8-11.8"/><path transform="rotate(-45 1768.815 900.198)" clip-path="url(#bn)" fill="none" d="M1764.5 895.9h8.5v8.5h-8.5z"/></g><g clip-path="url(#b)"><defs><path id="bo" d="M1768.78 906.178l6.01-6.01 6.01 6.01-6.01 6.01z"/></defs><clipPath id="bp"><use xlink:href="#bo" overflow="visible"/></clipPath><path clip-path="url(#bp)" fill="none" stroke="#000" stroke-width=".597" stroke-miterlimit="10" d="M1768.9 900.3l11.9 11.8m-11.9 0l11.9-11.8"/><path transform="rotate(-45 1774.854 906.237)" clip-path="url(#bp)" fill="none" d="M1770.6 901.9h8.5v8.5h-8.5z"/></g><g clip-path="url(#b)"><defs><path id="bq" d="M1756.686 906.194l6.01-6.01 6.01 6.01-6.01 6.01z"/></defs><clipPath id="br"><use xlink:href="#bq" overflow="visible"/></clipPath><path clip-path="url(#br)" fill="none" stroke="#000" stroke-width=".597" stroke-miterlimit="10" d="M1756.9 900.3l11.8 11.8m-11.8 0l11.8-11.8"/><path transform="rotate(-45 1762.776 906.237)" clip-path="url(#br)" fill="none" d="M1758.5 901.9h8.5v8.5h-8.5z"/></g><path d="M1764.5 843h53.3v3.3h-53.3zm7.5 60.1h38.3v3.3H1772zM815.2 361.7h174v120h-174z"/><path fill="#FF5722" d="M815.2 481.7h173.6v6.4H815.2z"/><path fill="#FF5722" d="M837.7 559.2c-.6 0-1.1-.5-1.1-1.1v-69.9c0-.6.5-1.1 1.1-1.1s1.1.5 1.1 1.1v69.9c0 .6-.5 1.1-1.1 1.1z"/><path fill="#FF5722" d="M852.7 559.2h-30c-.6 0-1.1-.5-1.1-1.1s.5-1.1 1.1-1.1h30c.6 0 1.1.5 1.1 1.1s-.5 1.1-1.1 1.1z"/><circle cx="824" cy="565.1" r="2.7"/><circle cx="851.5" cy="565.1" r="2.7"/><path fill="#FF5722" d="M966.4 559.2c-.6 0-1.1-.5-1.1-1.1v-69.9c0-.6.5-1.1 1.1-1.1s1.1.5 1.1 1.1v69.9c0 .6-.5 1.1-1.1 1.1z"/><path fill="#FF5722" d="M981.4 559.2h-30c-.6 0-1.1-.5-1.1-1.1s.5-1.1 1.1-1.1h30c.6 0 1.1.5 1.1 1.1s-.5 1.1-1.1 1.1z"/><circle cx="952.6" cy="565.1" r="2.7"/><circle cx="980.1" cy="565.1" r="2.7"/><path fill="#FFF" d="M901.2 414.3c-8.3 0-15-6.7-15-15s6.7-15 15-15 15 6.7 15 15-6.7 15-15 15zm0-28.6c-7.5 0-13.5 6.1-13.5 13.5s6.1 13.5 13.5 13.5 13.5-6.1 13.5-13.5-6-13.5-13.5-13.5zM884 458.1h-27.5v-27.5H884v27.5zm-26-1.5h24.5v-24.5H858v24.5zm90.5 1.5h-32.6l16.3-28.2 16.3 28.2zm-30-1.5h27.4l-13.7-23.7-13.7 23.7zm-130.8-4.5c1.4 11.8 4.4 47 4.4 47l-6.2.5-4.4-37.8v31.9h-28.7l-.6-30.2-4 36-6.3-.5s2-38 4.6-49.9c2.1-9.6 9.4-12.1 21.8-12.1s18 3.7 19.4 15.1z"/><path fill="#FF7043" d="M741.9 499s-.8 7.6 2.9 7.6c3.8 0 3.4-7.1 3.4-7.1l-6.3-.5zm50.3.1s.9 6.9-2.9 6.8c-3.8 0-3.4-6.3-3.4-6.3l6.3-.5zM760 418.9c.1-5.3 6.1-9.1 12.1-9.2 4.5 0 3.9 14.1 1.3 18.4-2.9 4.7-1.5 9-1.5 9s-.9 2-4.2 2.3c-2.5.2-4.8-2.2-4.8-2.2s1.2-1.2.7-5.5c-.6-4.9-3.8-5.4-3.6-12.8z"/><path fill="#F4B400" d="M762.7 428.5c-6.2-8-3.5-19.7 2-22.4 5-2.5 8-9.9 13.6-8.2 5.6 1.6 2.9 13.8-6.4 16.4-2.3.6-4.8 2.3-6 6.1 0 0-2.1-2.5-3.1-1-.9 1.5 1.2 4.5 1.2 4.5l-1.3 4.6z"/><path d="M781.5 493.7s3.5 17.3 2.4 35.2c-.7 11.3-3.9 30.9-2.3 33.4 1.7 2.5 6.5 2.5 6.5 5.6h-14.5s-.8-12.4-.7-29.6c0-5-.9-18.9-1.8-24.1-.4-2-3.3-2-3.6 0-1 5.4-2.1 19.2-2.1 21.3-.2 4.1-5.6 23.6-3.3 26.8 2.5 3.5 5.9 2.6 5.9 5.5h-13.6s.1-18.6.7-29.5c.9-15.2-3-22.1-2.3-44.6h28.7z"/><path fill="#FFF" d="M754.4 567.8H768c0-2.9-3.4-1.9-5.9-5.5-.4-.5-.5-1.5-.6-2.8h-7.1v8.3zm27.3-5.6c-.3-.4-.4-1.4-.5-2.7h-7.9c.2 5.2.4 8.3.4 8.3h14.5c0-3.1-4.8-3.1-6.5-5.6z"/><path fill="#FF5722" d="M1032.9 448.4c-3.7-.1-5-3-7.6-.9-4.5 3.6-11.3 14-10.9 17.8.8 5.9 7.3 7.5 5.8 23h20.2c-7.7-13 3.3-36.1-7.5-39.9z"/><path fill="#FF5722" d="M1025.7 446.6s-2.4 17.5-6.3 24.4-15 13.8-15 13.8l2.3 4.3s15.9-6.7 19.8-13.8c3.9-7.1 9.7-24.4 9.7-24.4l-10.5-4.3z"/><path fill="#8D6E63" d="M1004.4 484.8s-4.3 2.7-3.1 5c1.2 2.3 5.4-.6 5.4-.6l-2.3-4.4z"/><path d="M1042.7 535.6c-1.8-8.4 1.1-11.2 1.7-24 .6-12.1.1-14.4-3.9-23.2h-20.2c-.6 6.1.1 3.3-3.2 14.3-3.4 11.3-5.4 20.6-4.6 27.6.8 6.9 2.8 16.7 3.9 22.4s.9 8.8-3.3 10.4-5.6 4.8-5.6 4.8h17.2s-1-17.5-1.6-26.9-2.5-7 .6-14.7c3.1-7.7 5.2-16.1 5.2-16.1s1.4 18.8 4.2 25.7 9.9 26.6 4.5 27.9-5.6 4.1-5.6 4.1h16.1s-1.2-7.1-1.3-16.6c-.1-9.6-3.3-12-4.1-15.7z"/><path fill="#FF5722" d="M1025.8 447.1s-12.4 7.1-20.3 7.4c-7.9.3-20.9-4.7-20.9-4.7l-1.9 4.2s14.7 9.2 22.8 8.8c8.1-.5 22.2-4.5 22.2-4.5l-1.9-11.2z"/><path fill="#8D6E63" d="M984.6 449.8s-4.6-2.8-5.9-.6 4 4.8 4 4.8l1.9-4.2zm47.7-18.6c-1.1-4.8-5.3-10.2-11.6-5.1-3.4 2.8-2.9 13.6 2.5 15.4 3 1 2.1 6 2.1 6s.8 1.2 3.9.8c2.3-.3 3.7-2.8 3.7-2.8s-1.1.5-1.4-3.5c-.4-4.5 2.4-4 .8-10.8z"/><path d="M1017.2 423.9c1-2.9 8.9-6.4 14.7-2.1 5.8 4.3 2.4 19.4 11.1 25.3 8.7 5.8 10.8 12.2 8.9 17.6-1.9 5.5-11.6 6.7-17-.7s-7.3-24.8-8.5-30.6c-1.3-5.8-11.8-2.3-9.2-9.5z"/><path fill="#FF5722" d="M1016.4 552.6c1.1 5.7.9 8.8-3.3 10.4s-5.6 4.8-5.6 4.8h17.2s-1-17.2-1.6-26.6h-8.9c.7 4.3 1.6 8.4 2.2 11.4zm28.6-11.4h-9.8c3.1 8.6 6.8 21.5 2.4 22.5-5.4 1.3-5.6 4.1-5.6 4.1h16.1s-1.2-7.1-1.3-16.6c-.1-4.8-.9-7.8-1.8-10z"/><path fill="#FFF" d="M1177.1 803.5c-3.9 4.9-30.2 24.6-30.2 24.6l2.8 4s22.2-11.6 26.2-14.9 8.7-11.3 8.7-11.3l-7.5-2.4z"/><path fill="#FFF" d="M1189.4 778.6c-4.1-.1-5.5-.1-8.4 2.2-5 4-9.5 10.2-9 14.3.5 4.1 5.3 9.6 3.4 29.1h22.4c-8.6-14.3 3.6-41.4-8.4-45.6z"/><path fill="#F4B400" d="M1200.3 872.5c-2-9.2 6-31.3-2.5-48.2h-22.4c-.7 6.7.1 3.6-3.5 15.8-3.7 12.5-6 18.8-5.1 26.4s3.1 18.4 4.4 24.7c1.2 6.3 1.8 10.5-2.8 12.3-4.7 1.8-5.4 4.5-5.4 4.5h17.4s-1.1-19.3-1.8-29.7c-.6-10.4-2.8-7.8.6-16.3s5.8-13.8 5.8-13.8 1.6 16.8 4.7 24.4c3.1 7.6 11 29.4 5 30.8-6 1.4-6.2 4.5-6.2 4.5h17.8s-1.3-7.9-1.5-18.3-3.6-13-4.5-17.1z"/><path d="M1143.1 834.2l-1.1-2c.3-.2 7.7-4.1 14.2-2.6 6.3 1.4 11.4.5 13.3-2.5l1.9 1.2c-2.5 3.8-8.4 5.1-15.7 3.4-5.6-1.3-12.5 2.4-12.6 2.5z"/><path fill="#FF5722" d="M1179.1 856.6H1165V824c0-3.9 3.2-7.1 7.1-7.1 3.9 0 7.1 3.2 7.1 7.1v32.6z"/><path d="M1176.1 818.1h-14.3v-2.3h6.3l-6.9-4.2 1.2-1.9m-18.8 24.9l-15.5 10.5-3.1-5.2 16.9-8.2"/><path fill="#FFF" d="M1165 826.8h7.6v15.8h-7.6z"/><path fill="#FF7043" d="M1188.6 763.6c-.2-3.9-5.7-10.4-12.7-4.8-3.8 3-3.2 15 2.7 17 3.3 1.1 2.3 5 2.3 5s.9 1.3 4.3.9c2.5-.3 4.1-3.1 4.1-3.1s-.9.5-1.6-2.2c-1.4-6.7 1.2-8.2.9-12.8z"/><path fill="#F4B400" d="M1168.4 903.6c-4.7 1.8-5.4 4.5-5.4 4.5h17.4s-.1-2.2-.3-5.6h-9.7c-.6.4-1.2.8-2 1.1zm27.7-1.2c-.3.5-.8.9-1.4 1.1-6 1.4-6.2 4.5-6.2 4.5h17.8s-.4-2.1-.7-5.6h-9.5z"/><path d="M1176.6 757.1c2-1.8 4.9-2.4 8.3-.8 3.7 1.8 5.3 5.5 4.9 9.4-.4 3.9-2.4 4.6-2.3 6.5 0 0-1.2-.7-2.2-1.9-.8-.8-1-2.1-.5-3.1.2-.5.4-1.2.2-2.1-.3-1-1.1-1.2-1.9-1.1-.9.1-1.7-.3-2.3-1-1.1-1.4-5.9-2.7-5.9-2.7s-.7-1 1.7-3.2z"/><path fill="#FFF" d="M1183.3 787.2c2 5.8 12.5 17.4 10.8 20.9-1.1 2.3-16.7 6.9-16.7 6.9l1.8 5.3s18.4-5.3 22-7.6c3.6-2.3.8-11.1-.8-15.1s-6.7-14.9-6.7-14.9l-10.4 4.5z"/><path fill="#FF7043" d="M1177.4 814.9s-7.2 2.8-6.6 5.5c.6 2.7 8.4-.2 8.4-.2l-1.8-5.3z"/><circle cx="1187.7" cy="753.2" r="5.4"/><path fill="#FF7043" d="M1148.9 834.1c1.6-.8 2.3-2.3 1.5-3.2-2-2.4-3.2-4-6.1-3-3 1.1-3.2 5.4-2.4 7.7.4 1 2.1 1.1 3.6.4l3.4-1.9zM1048 911s4.1-4 6.3-2.9 1.2 5.1-1.7 8.2l-4.6-5.3zm-105.5 62.2s-4.1 4-6.3 2.9-1.2-5.1 1.7-8.2l4.6 5.3z"/><path d="M1011.1 980.6s20.6-1.6 26.6 0c6.2 1.7 13.1 20.1 17.9 38.2 1.8 6.6 11.2.9 13.4 5.6l-15.9 8.3c-16-30.7-15.9-30.6-18.2-34.8-2.9-5.3-8-4.6-18.6.9-6.4 3.4-29.4 11-33.9-8.1l28.7-10.1z"/><path d="M982.4 990.9s-.6 29.9-2.3 33.4c-2.2 4.6-37.7 16.9-37.7 16.9l6.4 19.1s3.5-3 3.1-9.8c-.5-8.6 32.4-11.2 39.8-17.9 3.1-2.8 12-25.6 13.2-33.6s-22.5-8.1-22.5-8.1zm74.1 29.8l-7.8 3.8c2.5 4.8 4.3 8.3 4.3 8.3l15.9-8.3c-1.9-4.1-9.5-.2-12.4-3.8z"/><path d="M942.3 1041.2l6.4 19.1s3.5-3 3.1-9.8c-.1-1.3.6-2.5 1.9-3.6l-3-8.7c-4.9 1.8-8.4 3-8.4 3z"/><path fill="#F4B400" d="M997.1 936.4c-6.6.3-12.5.5-14.8 6.7s0 38 0 38l-.1 18.2c20.2-6.2 28.9-18.7 28.9-18.7l-.8-16.4c.1-8.4 1.9-28.6-13.2-27.8z"/><path fill="#F4B400" d="M999.7 936.5s18-3.7 25-6S1048 911 1048 911l4.6 5.2s-15.3 17.1-20.7 20.4-21.5 11-21.4 21c0 9.9-10.8-21.1-10.8-21.1zm-18.5 21c0-4.7-7.8-7.2-13.3-4.7-6.7 3-25.5 20.5-25.5 20.5l-4.6-5.2s19.8-20.1 25.2-23.4c5.4-3.3 24.9-8 28.6-8 3-.1-10.3 25.4-10.4 20.8z"/><path fill="#FF7043" d="M989 920.5c-.3-4.8.5-10.4 7.5-10.3 9.3.1 6.5 15.5 4.1 19.3-2.6 4.2-.9 6.9-.9 6.9s-1.2 1.7-4.2 1.9c-2.2.2-4.4-1.8-4.4-1.8s1.1-1.3.7-5.2c-.6-4.2-2.3-3.9-2.8-10.8z"/><path d="M994.8 907.9c-4.4.8-7.3 4.9-6.5 9.3l15.8-2.8c-.8-4.4-4.9-7.3-9.3-6.5z"/><path d="M987.4 918.5l-.2-1.1c-.4-2.4.1-4.8 1.5-6.8s3.5-3.3 5.9-3.8c.5-.1 1.1-.1 1.6-.1 4.4 0 8.2 3.2 9 7.5l.2 1.1-18 3.2zm8.8-9.6c-.4 0-.8 0-1.2.1-1.8.3-3.4 1.3-4.4 2.8-.8 1.2-1.3 2.6-1.2 4l13.4-2.4c-1-2.6-3.6-4.5-6.6-4.5z"/><path d="M1017.453 910.953l.394 2.266-29.36 5.1-.393-2.27zM1001 1012c2.9-7.2 5.6-8 15.6-13.2 9.1-4.7-.2-8.9-9.7-5.3-9.3 3.5-14.1 12.8-12 16.2s3.2 9.5 6.1 2.3z"/><path fill="#FFF" d="M679.3 814.6l-22.6 6.2 16.7-16.4"/><path d="M639.5 824.9c2.6-5.8 9.5-28.5 0-42.9-9.5-14.4-19.3-3.8-18.8 5.6.9 14.4 16.2 43.1 18.8 37.3zm-17.4 13.5c-2.8 4.6-12.5 19.6-14.2 22.6-1.7 3 10.6 25.4 10.6 25.4l4.6-2.7s-7.8-16.9-8.2-19.3c-.5-2.5 9.1-9.9 9.1-9.9l-1.9-16.1z"/><path fill="#8D6E63" d="M629.7 806.6c.2-.2.5-.3.7-.5-.2.2-.5.4-.7.5zm5.3-1.1c1.2.1 2.1.4 2.9.9-.7-.4-1.7-.7-2.9-.9zm-4.4.6c.2-.1.4-.2.7-.3-.3.1-.5.2-.7.3zm2.9-.7c-.4 0-.7 0-1 .1.3 0 .7-.1 1-.1zm-2 .3c.2-.1.4-.1.7-.2-.2.1-.5.2-.7.2z"/><path d="M632.2 805.6c.1 0 .2 0 .3-.1-.1 0-.2.1-.3.1zm-.9.2c.1 0 .2-.1.3-.1-.2.1-.3.1-.3.1zm-.9.4s.1 0 .2-.1c-.1 0-.1 0-.2.1zm-.8.5c.1 0 .1-.1 0 0 .1-.1.1 0 0 0zm3.9-1.3c.5 0 1 0 1.5.1-.4 0-.9-.1-1.5-.1zm.5 27.9c6.9-.3 11.3.9 13.6 6.9 2.3 5.9.7 43 .7 43h-27.8l.7-25.8c0-8.3-6-23.4 12.8-24.1z"/><path fill="#FF7043" d="M641.5 816.5c.3-5.1-.5-11.1-8-11-10 .1-7 16.6-4.4 20.7 2.8 4.6 1.3 7.7 1.3 7.7s1 1.6 4.2 1.9c2.4.2 4.7-2.2 4.7-2.2s-1.1-1.2-.6-5.3c.5-4.8 2.3-4.5 2.8-11.8z"/><path fill="#F4B400" d="M620.5 883.2s-2.7 21.9-1.6 39.1c.7 11 3.8 29.9 2.2 32.3-1.6 2.4-6.3 2.4-6.3 5.4h14c.8-12 .1-11.9-.1-28.7 0-4.8 1.6-21.2 2.5-26.2.4-2 3.1-2 3.5 0 1 5.3 2 21.5 2.1 23.6.2 4 5.4 22.8 3.2 26-2.4 3.4-5.7 2.5-5.7 5.3h13.2s-.1-18-.7-28.6c-.9-14.7 2.2-26.5 1.5-48.3l-27.8.1z"/><path d="M633.5 805.4c-3.2 0-5.1 1.8-6 4.2 1.9.7 4.9 1.5 8 1.1l.8 5.6s2-2.7 2.7-.1c.7 2.6-1 5-1 5l1.4 3.6c1-2 1.8-4 2.1-8.4.4-5-.5-11.1-8-11zm12.7 32c5.2 5.7 13.6 19.5 15.3 23.9 1.7 4.4-10.8 26.2-10.8 26.2l-5.4-3s8.1-18.5 8.6-21-6.2-8.2-6.2-8.2l-1.5-17.9z"/><path fill="#FFF" d="M621.1 954.6c-1.6 2.4-6.3 2.4-6.3 5.4h14c.2-2.6.3-4.6.3-6.3h-7.8c0 .4-.1.7-.2.9zm19.3-.9c-.1.4-.2.8-.4 1-2.4 3.4-5.7 2.5-5.7 5.3h13.2s0-2.6-.1-6.3h-7zM607.1 848h55.3v55.3h-55.3z"/><path fill="#FFF" d="M662.4 904.5h-55.3c-.7 0-1.2-.6-1.2-1.2V848c0-.7.6-1.2 1.2-1.2h55.3c.7 0 1.2.6 1.2 1.2v55.3c.1.7-.5 1.2-1.2 1.2zm-54-2.5h52.8v-52.8h-52.8V902zm98 1.3c0-.7.5-1.3 1.2-1.3s1.3.5 1.3 1.2-.5 1.3-1.2 1.3h-.1c-.6 0-1.2-.5-1.2-1.2zm-4.9.8c-.7-.1-1.1-.8-1-1.4.1-.7.8-1.2 1.4-1 .7.1 1.2.8 1 1.4-.1.6-.6 1.1-1.2 1.1-.1 0-.1-.1-.2-.1zm10.8-1.5c-.2-.7.2-1.4.9-1.5.7-.2 1.4.2 1.5.9.2.7-.2 1.3-.9 1.5h-.3c-.5 0-1-.4-1.2-.9zm-16.8-.1c-.6-.2-1-1-.7-1.6.2-.6 1-1 1.6-.7.6.2 1 1 .7 1.6-.2.5-.7.8-1.2.8-.1 0-.3-.1-.4-.1zm22.5-1.9c-.3-.6-.1-1.4.5-1.7.6-.3 1.4-.1 1.7.5.3.6.1 1.4-.5 1.7-.2.1-.4.2-.6.2-.4 0-.9-.3-1.1-.7zm-28.1-1c-.6-.4-.7-1.2-.3-1.7.4-.6 1.2-.7 1.7-.3.6.4.7 1.2.3 1.7-.2.4-.6.5-1 .5-.2 0-.4-.1-.7-.2zm33.2-2.1c-.5-.5-.4-1.3.1-1.8.5-.4 1.3-.4 1.8.1s.4 1.3-.1 1.8c-.2.2-.5.3-.8.3-.4 0-.8-.1-1-.4zm-37.9-2c-.5-.5-.4-1.3.1-1.8s1.3-.5 1.8 0 .4 1.3-.1 1.8c-.2.2-.5.4-.9.4-.3 0-.7-.1-.9-.4zm42.2-2.2c-.5-.4-.6-1.2-.2-1.8.4-.5 1.2-.7 1.8-.2.6.4.7 1.2.2 1.8-.2.3-.6.5-1 .5-.3 0-.6-.1-.8-.3zm-46-2.7c-.3-.6-.2-1.4.4-1.7.6-.4 1.4-.2 1.7.4.4.6.2 1.4-.4 1.7-.2.1-.4.2-.6.2-.5 0-.9-.3-1.1-.6zm49.3-2.3c-.6-.3-.9-1-.6-1.7.3-.6 1-.9 1.7-.6.6.3.9 1 .6 1.7-.2.5-.7.7-1.1.7-.2.1-.4 0-.6-.1zm-51.9-3.4c-.2-.6.1-1.4.8-1.6.7-.2 1.4.1 1.6.8.2.7-.1 1.4-.8 1.6-.1 0-.3.1-.4.1-.6-.1-1.1-.4-1.2-.9zm54.1-2.1c-.7-.2-1.1-.8-1-1.5.1-.7.8-1.1 1.5-1 .7.1 1.1.8 1 1.5-.1.6-.6 1-1.2 1h-.3zm-55.5-4c-.1-.7.4-1.3 1.1-1.4.7-.1 1.3.4 1.4 1.1.1.7-.4 1.3-1.1 1.4h-.1c-.7 0-1.2-.5-1.3-1.1zm55.1-3.2s0-.1 0 0c0-.8.6-1.4 1.2-1.4.7 0 1.2.6 1.2 1.2v.1c0 .7-.6 1.2-1.2 1.2-.6.2-1.2-.4-1.2-1.1zm-54-1.7c-.7-.1-1.2-.7-1.1-1.4.1-.7.7-1.2 1.4-1.1.7.1 1.2.7 1.1 1.4-.1.6-.6 1.1-1.2 1.1h-.2zm53.4-4.1c-.1-.7.3-1.3.9-1.5.7-.2 1.3.3 1.5 1 .1.7-.3 1.3-1 1.5h-.3c-.5 0-1-.4-1.1-1zm-52.4-1.8c-.6-.2-1-.9-.8-1.6.2-.6.9-1 1.6-.8.7.2 1 .9.8 1.6-.2.5-.7.8-1.2.8-.1.1-.3.1-.4 0zm50.6-3.6c-.3-.6 0-1.4.6-1.7.6-.3 1.4 0 1.7.6.3.6 0 1.4-.6 1.7-.2.1-.4.1-.5.1-.6.1-1-.2-1.2-.7zm-48.3-1.9c-.6-.3-.8-1.1-.4-1.7.4-.6 1.1-.8 1.7-.4.6.3.8 1.1.4 1.7-.2.4-.7.6-1.1.6-.2 0-.4-.1-.6-.2zm45.3-2.9c-.4-.5-.3-1.3.2-1.8.5-.4 1.3-.3 1.8.2.4.5.3 1.3-.2 1.8-.2.2-.5.3-.8.3-.4-.1-.8-.2-1-.5zm-41.9-2c-.5-.5-.5-1.3 0-1.8s1.3-.5 1.8 0 .5 1.3.1 1.8c-.2.3-.6.4-.9.4-.5-.1-.8-.2-1-.4zm37.9-2.2c-.5-.4-.6-1.2-.1-1.8.4-.5 1.2-.6 1.8-.1.5.4.6 1.2.1 1.8-.2.3-.6.4-1 .4-.2 0-.5-.1-.8-.3zm-33.6-1.9c-.4-.6-.2-1.3.3-1.7.6-.4 1.4-.2 1.7.3.4.6.2 1.4-.3 1.7-.2.2-.5.2-.7.2-.3 0-.7-.2-1-.5zm28.9-1.3c-.6-.3-.8-1.1-.5-1.7.3-.6 1.1-.8 1.7-.5.6.3.8 1.1.5 1.7-.2.4-.7.7-1.1.7-.2 0-.4-.1-.6-.2zm-23.7-1.8c-.3-.6 0-1.4.7-1.6.6-.3 1.4 0 1.6.7.3.6-.1 1.4-.7 1.6-.2.1-.3.1-.5.1-.5 0-.9-.3-1.1-.8zm18.4-.3c-.7-.2-1.1-.9-.9-1.5.2-.7.9-1 1.5-.9.7.2 1.1.9.9 1.5-.1.6-.6.9-1.2.9-.1.1-.2.1-.3 0zm-12.8-1.6c-.1-.7.3-1.3 1-1.4.7-.1 1.3.3 1.4 1 .1.7-.3 1.3-1 1.4h-.2c-.5.1-1.1-.3-1.2-1zm6-.6c0-.7.6-1.2 1.3-1.2.7 0 1.2.6 1.2 1.3 0 .7-.6 1.2-1.3 1.2-.7 0-1.2-.6-1.2-1.3zm-113.7 56.6c-.3 0-.6-.1-.9-.4-.2-.2-.4-.6-.4-.9s.1-.7.4-.9c.5-.5 1.3-.5 1.8 0 .2.2.4.5.4.9s-.1.7-.4.9c-.2.3-.5.4-.9.4zm-7-1.2c0-.7.6-1.2 1.2-1.2.7 0 1.2.6 1.2 1.2 0 .7-.6 1.2-1.2 1.2-.7 0-1.2-.5-1.2-1.2zm-5.8 0c0-.7.6-1.2 1.2-1.2.7 0 1.2.6 1.2 1.2 0 .7-.6 1.2-1.2 1.2-.7 0-1.2-.5-1.2-1.2zm-5.9 0c0-.7.6-1.2 1.2-1.2.7 0 1.2.6 1.2 1.2 0 .7-.6 1.2-1.2 1.2s-1.2-.5-1.2-1.2zm-5.8 0c0-.7.6-1.2 1.2-1.2.7 0 1.2.6 1.2 1.2 0 .7-.6 1.2-1.2 1.2s-1.2-.5-1.2-1.2zm-5.8 0c0-.7.6-1.2 1.2-1.2.7 0 1.2.6 1.2 1.2 0 .7-.6 1.2-1.2 1.2s-1.2-.5-1.2-1.2zm-5.8 0c0-.7.6-1.2 1.2-1.2.7 0 1.2.6 1.2 1.2 0 .7-.6 1.2-1.2 1.2s-1.2-.5-1.2-1.2zm-5.8 0c0-.7.6-1.2 1.2-1.2.7 0 1.2.6 1.2 1.2 0 .7-.6 1.2-1.2 1.2s-1.2-.5-1.2-1.2zm-5.8 0c0-.7.6-1.2 1.2-1.2.7 0 1.2.6 1.2 1.2 0 .7-.6 1.2-1.2 1.2-.7 0-1.2-.5-1.2-1.2zm-5.8 0c0-.7.6-1.2 1.2-1.2.7 0 1.2.6 1.2 1.2 0 .7-.6 1.2-1.2 1.2-.7 0-1.2-.5-1.2-1.2zm-5.8 0c0-.7.6-1.2 1.2-1.2.7 0 1.2.6 1.2 1.2 0 .7-.6 1.2-1.2 1.2-.7 0-1.2-.5-1.2-1.2zm-4.6 1.2c-.3 0-.6-.1-.9-.4-.2-.2-.4-.6-.4-.9s.1-.7.4-.9c.5-.5 1.3-.5 1.8 0 .2.2.4.5.4.9s-.1.7-.4.9c-.2.3-.6.4-.9.4zm2.3-5.2c-.6-.3-.8-1.1-.5-1.7.3-.6 1.1-.8 1.7-.5.6.4.8 1.1.5 1.7-.2.4-.6.6-1.1.6-.2.1-.4 0-.6-.1zm2.9-5c-.6-.3-.8-1.1-.5-1.7.4-.6 1.1-.8 1.7-.5.6.3.8 1.1.5 1.7-.2.4-.6.6-1.1.6-.2.1-.4 0-.6-.1zm2.9-5c-.6-.3-.8-1.1-.5-1.7.3-.6 1.1-.8 1.7-.5.6.3.8 1.1.5 1.7-.2.4-.7.6-1.1.6-.2 0-.4 0-.6-.1zm2.9-5.1c-.6-.4-.8-1.1-.5-1.7.3-.6 1.1-.8 1.7-.5.6.4.8 1.1.5 1.7-.2.4-.6.6-1.1.6-.2.1-.4 0-.6-.1zm2.9-5c-.6-.4-.8-1.1-.5-1.7.4-.6 1.1-.8 1.7-.5.6.3.8 1.1.5 1.7-.2.4-.7.6-1.1.6-.2.1-.4 0-.6-.1zm2.9-5c-.6-.3-.8-1.1-.5-1.7.3-.6 1.1-.8 1.7-.5.6.3.8 1.1.5 1.7-.2.4-.6.6-1.1.6-.2 0-.4 0-.6-.1zm2.9-5c-.6-.4-.8-1.1-.5-1.7.4-.6 1.1-.8 1.7-.5.6.3.8 1.1.5 1.7-.2.4-.7.6-1.1.6-.2 0-.4 0-.6-.1zm2.9-5.1c-.6-.3-.8-1.1-.5-1.7.4-.6 1.1-.8 1.7-.5.6.3.8 1.1.5 1.7-.2.4-.7.6-1.1.6-.2.1-.4 0-.6-.1zm2.9-5c-.6-.3-.8-1.1-.5-1.7.3-.6 1.1-.8 1.7-.5.6.3.8 1.1.5 1.7-.2.4-.6.6-1.1.6-.2.1-.4 0-.6-.1zm2.9-5c-.6-.4-.8-1.1-.5-1.7.4-.6 1.1-.8 1.7-.5.6.3.8 1.1.5 1.7-.2.4-.7.6-1.1.6-.2 0-.4 0-.6-.1zm3.5-4.9c-.3 0-.6-.1-.9-.4-.2-.2-.4-.5-.4-.9s.1-.7.4-.9c.5-.5 1.3-.5 1.8 0 .2.2.4.6.4.9 0 .3-.1.7-.4.9-.2.3-.5.4-.9.4zm28 49.7c-.3-.6-.1-1.4.5-1.7.6-.3 1.4-.1 1.7.5.4.6.1 1.4-.5 1.7-.2.1-.4.2-.6.2-.4-.1-.8-.3-1.1-.7zm-2.9-5.1c-.3-.6-.1-1.4.5-1.7.6-.3 1.4-.1 1.7.5.3.6.1 1.4-.5 1.7-.2.1-.4.2-.6.2-.4 0-.8-.3-1.1-.7zm-2.9-5c-.4-.6-.2-1.4.4-1.7.6-.3 1.4-.1 1.7.5.3.6.1 1.4-.5 1.7-.2.1-.4.2-.6.2-.3-.1-.7-.3-1-.7zm-2.9-5c-.4-.6-.1-1.4.4-1.7.6-.3 1.4-.1 1.7.5.3.6.1 1.4-.5 1.7-.2.1-.4.2-.6.2-.3-.1-.8-.3-1-.7zm-2.9-5c-.3-.6-.1-1.4.5-1.7.6-.3 1.4-.1 1.7.5.3.6.1 1.4-.5 1.7-.2.1-.4.2-.6.2-.4-.1-.9-.4-1.1-.7zm-2.9-5.1c-.3-.6-.1-1.4.5-1.7.6-.3 1.4-.1 1.7.5.3.6.1 1.4-.5 1.7-.2.1-.4.2-.6.2-.4-.1-.9-.3-1.1-.7zm-2.9-5c-.4-.6-.1-1.4.5-1.7.6-.3 1.4-.1 1.7.5.4.6.1 1.4-.5 1.7-.2.1-.4.2-.6.2-.5-.1-.9-.3-1.1-.7zm-2.9-5c-.4-.6-.1-1.4.5-1.7.6-.3 1.4-.1 1.7.5.4.6.1 1.4-.4 1.7-.2.1-.4.2-.6.2-.6-.1-1-.3-1.2-.7zm-2.9-5.1c-.3-.6-.1-1.4.5-1.7.6-.3 1.4-.1 1.7.5.3.6.1 1.4-.5 1.7-.2.1-.4.2-.6.2-.5 0-.9-.3-1.1-.7zm-2.9-5c-.3-.6-.1-1.4.5-1.7.6-.3 1.4-.1 1.7.5.3.6.1 1.4-.5 1.7-.2.1-.4.2-.6.2-.5-.1-.9-.3-1.1-.7z"/><path fill="#FFF" d="M662.4 849.2c-.3 0-.6-.1-.9-.4-.2-.2-.4-.5-.4-.9s.1-.7.4-.9c.5-.5 1.3-.5 1.8 0 .2.2.4.6.4.9s-.1.7-.4.9c-.2.3-.5.4-.9.4zm32.2-1.2c0-.7.6-1.2 1.2-1.2.7 0 1.2.6 1.2 1.2 0 .7-.6 1.2-1.2 1.2-.7 0-1.2-.5-1.2-1.2zm-5.6 0c0-.7.6-1.2 1.3-1.2.7 0 1.2.6 1.2 1.2 0 .7-.6 1.2-1.2 1.2-.7 0-1.3-.5-1.3-1.2zm-5.5 0c0-.7.6-1.2 1.2-1.2.7 0 1.2.6 1.2 1.2 0 .7-.6 1.2-1.2 1.2-.7 0-1.2-.5-1.2-1.2zm-5.6 0c0-.7.6-1.2 1.2-1.2.7 0 1.2.6 1.2 1.2 0 .7-.6 1.2-1.2 1.2-.7 0-1.2-.5-1.2-1.2zm-5.6 0c0-.7.6-1.2 1.2-1.2.7 0 1.2.6 1.2 1.2 0 .7-.6 1.2-1.2 1.2s-1.2-.5-1.2-1.2zm-5.5 0c0-.7.6-1.2 1.2-1.2.7 0 1.2.6 1.2 1.2 0 .7-.6 1.2-1.2 1.2-.7 0-1.2-.5-1.2-1.2zm34.6 1.2c-.3 0-.6-.1-.9-.4-.2-.2-.4-.5-.4-.9s.1-.7.4-.9c.5-.5 1.3-.5 1.8 0 .2.2.4.6.4.9s-.1.7-.4.9c-.2.3-.6.4-.9.4zm0 55.3c-.3 0-.6-.1-.9-.4-.2-.2-.4-.6-.4-.9s.1-.7.4-.9c.5-.5 1.3-.5 1.8 0 .2.2.4.5.4.9s-.1.7-.4.9c-.2.3-.6.4-.9.4zm-6.8-1.2c0-.7.6-1.2 1.2-1.2.7 0 1.2.6 1.2 1.2 0 .7-.6 1.2-1.2 1.2-.7 0-1.2-.5-1.2-1.2zm-5.6 0c0-.7.6-1.2 1.2-1.2.7 0 1.2.6 1.2 1.2 0 .7-.6 1.2-1.2 1.2s-1.2-.5-1.2-1.2zm-5.5 0c0-.7.6-1.2 1.2-1.2.7 0 1.2.6 1.2 1.2 0 .7-.6 1.2-1.2 1.2-.7 0-1.2-.5-1.2-1.2zm-5.6 0c0-.7.6-1.2 1.2-1.2.7 0 1.2.6 1.2 1.2 0 .7-.6 1.2-1.2 1.2-.7 0-1.2-.5-1.2-1.2zm-5.6 0c0-.7.6-1.2 1.2-1.2.7 0 1.2.6 1.2 1.2 0 .7-.6 1.2-1.2 1.2s-1.2-.5-1.2-1.2zm-5.5 0c0-.7.6-1.2 1.2-1.2.7 0 1.2.6 1.2 1.2 0 .7-.6 1.2-1.2 1.2-.7 0-1.2-.5-1.2-1.2zm-4.4 1.2c-.3 0-.6-.1-.9-.4-.2-.2-.4-.6-.4-.9s.1-.7.4-.9c.5-.5 1.3-.5 1.8 0 .2.2.4.5.4.9s-.1.7-.4.9c-.2.3-.5.4-.9.4zm-55.3-55.3c-.3 0-.6-.1-.9-.4-.2-.2-.4-.5-.4-.9s.1-.7.4-.9c.5-.5 1.3-.5 1.8 0 .2.2.4.6.4.9s-.1.7-.4.9c-.2.3-.5.4-.9.4zm-7-1.2c0-.7.6-1.2 1.2-1.2.7 0 1.2.6 1.2 1.2 0 .7-.6 1.2-1.2 1.2-.7 0-1.2-.5-1.2-1.2zm-5.8 0c0-.7.6-1.2 1.2-1.2.7 0 1.2.6 1.2 1.2 0 .7-.6 1.2-1.2 1.2-.7 0-1.2-.5-1.2-1.2zm-5.8 0c0-.7.6-1.2 1.2-1.2.7 0 1.2.6 1.2 1.2 0 .7-.6 1.2-1.2 1.2-.7 0-1.2-.5-1.2-1.2zm-5.9 0c0-.7.6-1.2 1.2-1.2.7 0 1.3.6 1.3 1.2 0 .7-.6 1.2-1.3 1.2-.6 0-1.2-.5-1.2-1.2zm-5.8 0c0-.7.6-1.2 1.2-1.2.7 0 1.3.6 1.3 1.2 0 .7-.6 1.2-1.3 1.2-.6 0-1.2-.5-1.2-1.2zm-5.8 0c0-.7.6-1.2 1.2-1.2.7 0 1.2.6 1.2 1.2 0 .7-.6 1.2-1.2 1.2s-1.2-.5-1.2-1.2zm-5.8 0c0-.7.6-1.2 1.2-1.2.7 0 1.2.6 1.2 1.2 0 .7-.6 1.2-1.2 1.2s-1.2-.5-1.2-1.2zm-4.5 1.2c-.3 0-.6-.1-.9-.4-.2-.2-.4-.5-.4-.9s.1-.7.4-.9c.5-.5 1.3-.5 1.8 0 .2.2.4.6.4.9s-.1.7-.4.9c-.3.3-.6.4-.9.4zm31.9 55.3c-.3 0-.6-.1-.9-.4-.2-.2-.4-.6-.4-.9s.1-.7.4-.9c.5-.5 1.3-.5 1.8 0 .2.2.4.5.4.9s-.1.7-.4.9c-.2.3-.5.4-.9.4zm6-1.2c0-.7.6-1.2 1.2-1.2.7 0 1.2.6 1.2 1.2 0 .7-.6 1.2-1.2 1.2s-1.2-.5-1.2-1.2zm8.5 1.2c-.3 0-.6-.1-.9-.4-.2-.2-.4-.6-.4-.9 0-.3.1-.7.4-.9.5-.5 1.3-.5 1.8 0 .2.2.4.5.4.9s-.1.7-.4.9c-.2.3-.5.4-.9.4z"/><path fill="#FF7043" d="M609.2 876.9c-.3-2.4-.9-3.1-3-3.3-1.6-.1-3.3.7-4.5 2.1-.3.4-.6.8-.8 1.3-.6 1.6.2 3.1 1.2 4.1.5.5 1.1.9 1.8 1 3.7.6 5.8-1.1 5.3-5.2zm50-8.6c.3-2.4.9-3.1 3-3.3 1.6-.1 3.3.7 4.5 2.1.3.4.6.8.8 1.3.6 1.6-.2 3.1-1.2 4.1-.5.5-1.1.9-1.8 1-3.8.6-5.9-1.1-5.3-5.2z"/><path fill="#FFF" d="M702.9 768.9c-21.8 0-39.5 13-39.5 29.1s17.7 29.1 39.5 29.1 39.5-13 39.5-29.1c-.1-16.1-17.7-29.1-39.5-29.1zm1.1 43.2c-.4.4-.9.6-1.6.6s-1.2-.2-1.6-.6-.5-.9-.5-1.5.2-1.1.5-1.5.9-.6 1.6-.6 1.3.2 1.6.6.6.9.6 1.5-.2 1.1-.6 1.5zm6.5-18.8c-.3.8-.6 1.5-1.1 2.2s-1 1.4-1.6 2l-1.8 1.8c-.7.7-1.2 1.4-1.5 2.3s-.4 1.8-.4 2.7h-3.7c0-.9.1-1.8.2-2.4s.3-1.3.6-1.8.6-1.1 1-1.6 1-1.1 1.6-1.8c.4-.5.9-.9 1.3-1.3s.8-.8 1.1-1.3.6-.9.7-1.4.3-1.1.3-1.8c0-1.4-.4-2.5-1.1-3.3s-1.8-1.2-3.2-1.2c-.6 0-1.1.1-1.7.2s-1 .4-1.4.7-.7.7-1 1.2-.4 1.1-.4 1.8h-3.7c0-1.1.2-2.1.7-3s1-1.6 1.7-2.2 1.6-1.1 2.6-1.4 2-.5 3.2-.5c1.3 0 2.4.2 3.4.5s1.8.9 2.5 1.5 1.2 1.4 1.5 2.4.5 2 .5 3.1c.1 1-.1 1.8-.3 2.6z"/><path fill="#8D6E63" d="M1382.8 1157.3s3 24.2 1.8 43.2c-.7 12.1-4.2 33-2.4 35.7 1.8 2.7 6.9 2.6 6.9 6h-15.5c-.9-13.3-.1-13.2.1-31.7 0-5.3-1.7-23.4-2.7-28.9-.4-2.2-3.5-2.2-3.9 0-1.1 5.8-2.2 23.7-2.3 26-.2 4.4-6 25.2-3.5 28.7 2.6 3.8 6.3 2.8 6.3 5.9H1353s.1-19.9.8-31.6c.9-16.3-2.4-29.2-1.7-53.3h30.7z"/><path fill="#FF5722" d="M1379 1107.8c3.1 5 15.8 21.6 17.7 25 1.9 3.3-11.7 28-11.7 28l-5-3s8.6-18.6 9.1-21.3-10.1-10.9-10.1-10.9v-17.8z"/><path fill="#8D6E63" d="M1380 1157.9s-.3 9.7 5.4 11.3c3.3.9 1.5-3.3-.4-8.3l-5-3zm-7.3-85.1c-.3-.2-.5-.4-.8-.5.3.1.5.3.8.5zm-5.9-1.2c-1.3.1-2.4.5-3.2 1 .8-.5 1.9-.9 3.2-1zm4.9.6c-.2-.1-.5-.2-.7-.3.2.1.5.2.7.3zm-3.2-.7c.4 0 .8 0 1.1.1-.4-.1-.7-.1-1.1-.1zm2.2.3c-.2-.1-.5-.1-.7-.2.2.1.4.1.7.2z"/><path d="M1369.9 1071.6c-.1 0-.2 0-.3-.1.1.1.2.1.3.1zm1.1.3c-.1 0-.2-.1-.3-.1.1 0 .2.1.3.1zm.9.4c-.1 0-.1-.1-.2-.1.1 0 .1.1.2.1zm.9.6c-.1-.1-.1-.1 0 0-.1-.1-.1-.1 0 0zm-4.3-1.4c-.6 0-1.1 0-1.7.1.5-.1 1.1-.1 1.7-.1z"/><path fill="#FF5722" d="M1367.9 1102.3c-7.6-.3-12.5 1-15 7.6s-.7 47.5-.7 47.5h30.7l-.8-28.5c0-9.1 1.9-26-14.2-26.6z"/><path fill="#8D6E63" d="M1359.6 1083.7c-.4-5.7.6-12.3 8.8-12.2 11.1.1 7.7 18.3 4.9 22.9-3.1 5-1.4 8.5-1.4 8.5s-1.1 1.7-4.7 2.1c-2.6.2-5.1-2.4-5.1-2.4s1.3-1.3.7-5.8c-.6-5.4-2.7-5-3.2-13.1z"/><path d="M1367.8 1069.5c13.3 0 7.3 6.7 7.3 6.7s-5.4 1.7-8.8 1.2l-.9 6.2s-2.3-3-3-.1c-.8 2.8 1.1 5.5 1.1 5.5l-1.6 4c-1.1-2.2-2-4.4-2.3-9.3-.4-5.7 0-14.2 8.2-14.2z"/><path fill="none" d="M1364.8 1207.6c.1-2.3 1.2-20.2 2.3-26 .4-2.2 3.5-2.2 3.9 0 1 5.5 2.8 23.6 2.7 28.9-.1 14.5-.6 17.6-.4 24.7h-12.4c-1.2-5.5 3.7-23.5 3.9-27.6z"/><path d="M1382.2 1236.2c1.8 2.7 6.9 2.6 6.9 6h-15.5c-.2-2.8-.3-5.1-.4-7h8.6c.1.5.3.8.4 1zm-21.3-1c.1.5.2.8.4 1.1 2.6 3.8 6.3 2.8 6.3 5.9H1353s0-2.8.1-7h7.8z"/><path fill="#F4B400" d="M1382.8 1157.3h-30.7c-.6 18.5 1.3 30.5 1.7 42.5h11.5c.5-6.3 1.1-14.6 1.8-18.2.4-2.2 3.5-2.2 3.9 0 .6 3.3 1.5 11.2 2.1 18.2h11.6c1-19-1.9-42.5-1.9-42.5z"/><path fill="#FFF" d="M1410.9 1037.9h64v96h-64zm71.7 0h64v96h-64z"/><path fill="#B0BEC5" d="M1517.1 1045.8h20.9v1.5h-20.9zm0 5.6h20.9v1.5h-20.9zm0 5.6h20.9v1.5h-20.9zm0 5.7h20.9v1.5h-20.9zm0 5.6h20.9v1.5h-20.9zm0 5.6h20.9v1.5h-20.9zm0 5.7h20.9v1.5h-20.9zm0 11.2h20.9v1.5h-20.9zm0-5.6h20.9v1.5h-20.9zm21.7 40.9h-22.4v-29.7h22.4v29.7zm-21-1.5h19.4V1098h-19.4v26.6z"/><path fill="#B0BEC5" d="M1537.35 1096.874l1.204.895-20.944 28.16-1.204-.9z"/><path fill="#B0BEC5" d="M1517.644 1096.75l20.933 28.176-1.204.894-20.933-28.174zm-4.844-21.35h-22.4v-29.7h22.4v29.7zm-20.9-1.5h19.4v-26.7h-19.4v26.7z"/><path fill="#B0BEC5" d="M1511.454 1046.19l1.204.894-20.944 28.168-1.204-.895z"/><path fill="#B0BEC5" d="M1491.696 1046.134l20.934 28.175-1.204.89-20.934-28.18zm-.496 33.466h20.9v1.5h-20.9zm0 16.9h20.9v1.5h-20.9zm0 5.6h20.9v1.5h-20.9zm0-11.3h20.9v1.5h-20.9zm0-5.6h20.9v1.5h-20.9zm-45.8 5.6h20.9v1.5h-20.9zm0 5.7h20.9v1.5h-20.9zm0 5.6h20.9v1.5h-20.9zm0 5.6h20.9v1.5h-20.9zm0 5.7h20.9v1.5h-20.9zm0 5.6h20.9v1.5h-20.9zm0 5.6h20.9v1.5h-20.9zm21.7-37.9h-48.3v-40.9h48.3v40.9zm-46.9-1.5h45.3v-37.9h-45.3v37.9zm-.7 5.6h20.9v1.5h-20.9zm0 5.7h20.9v1.5h-20.9zm0 5.6h20.9v1.5h-20.9zm0 5.6h20.9v1.5h-20.9zm0 5.7h20.9v1.5h-20.9zm0 5.6h20.9v1.5h-20.9zm0 5.6h20.9v1.5h-20.9zm71.7-16.9h20.9v1.5h-20.9zm0 5.7h20.9v1.5h-20.9zm0 5.6h20.9v1.5h-20.9zm0 5.6h20.9v1.5h-20.9z"/><path fill="#B0BEC5" d="M1465.89 1045.88l.965 1.148-46.837 39.39-.965-1.15z"/><path fill="#B0BEC5" d="M1419.89 1045.96l46.823 39.406-.966 1.148-46.824-39.407z"/><path fill="#FF5722" d="M1354.5 1106.8c-5.7 6.3-18 21.5-19.9 26.4-1.9 4.8 14.9 28.9 14.9 28.9l6-3.3s-11.9-20.4-12.4-23.2 9.8-9 9.8-9l1.6-19.8z"/><path fill="#8D6E63" d="M1355.5 1158.8s2 9.5-3.3 12.2c-5.3 2.7 0-4.6-2.7-8.9l6-3.3z"/><path fill="#FF5722" d="M205 955.7c-7 .4-16.7 1-19.2 7.5s-5.6 15.7-6.6 20.9c-1.1 5.2 10.1 15.9 10.1 15.9l.1 10.4h30.5l-.8-28.3c0-9 2-27.3-14.1-26.4z"/><path fill="#8D6E63" d="M196.8 937.2c-.4-5.6.6-12.2 8.8-12.1 11 .1 7.6 18.2 4.9 22.7-3.1 5-1.5 8-1.5 8s-1 2.2-4.5 2.5c-2.6.2-5.1-2.4-5.1-2.4s1.3-1.3.7-5.8c-.7-5.2-2.7-4.9-3.3-12.9z"/><path d="M219.9 1010.3s3 20.8 1.8 39.8c-.7 12-4.2 32.8-2.4 35.5s6.9 2.6 6.9 6h-15.4c-.9-13.2-.1-13.1.1-31.5 0-5.3-1.7-20.1-2.7-25.6-.4-2.1-3.5-2.2-3.8 0-1.1 5.8-2.2 20.4-2.3 22.7-.2 4.4-5.9 25-3.5 28.5 2.6 3.8 6.2 2.8 6.2 5.8h-14.5s.1-19.8.8-31.4c.9-16.1-2.4-25.9-1.7-49.8h30.5zm-14.3-85.2c3.5 0 5.6 1.9 6.6 4.6-2 .8-5.4 1.7-8.8 1.2l-.9 6.1s-2.2-2.9-3-.1c-.8 2.8 1.1 5.5 1.1 5.5l-1.6 4c-1.1-2.2-1.9-4.4-2.3-9.2-.2-5.7.7-12.3 8.9-12.1z"/><path fill="#FF5722" d="M208.9 955.8s15.7.8 23-1.7c7.4-2.5 22.1-14.7 22.1-14.7l4.9 5.6s-14.4 11.3-20.2 14.9-19.7 8.4-19.6 19-10.2-23.1-10.2-23.1z"/><path fill="#8D6E63" d="M208.4 999s5.8 1.7 6 4.4c.1 2.6-4.2 3.7-8.5 2.6l2.5-7z"/><path fill="#FFF" d="M190.2 1091.5h14.5c0-3.1-3.6-2.1-6.2-5.8h-8.2c0 3.5-.1 5.8-.1 5.8zm29.2-5.8h-8.9c.1 1.7.2 3.5.3 5.8h15.4c0-3.3-5-3.3-6.8-5.8z"/><path fill="#8D6E63" d="M254.1 939.4c2.3-4.1 2.2-3.7 3.5-7.9s3.5-3.9 3.3 1.1c-.1 5 .9 8.9-1.9 12.4l-4.9-5.6z"/><path fill="#FF5722" d="M322.6 1058.7c-2-9.2 1.2-12.3 1.8-26.2.6-13.3 1-16.5-4.3-25.4H298c-.7 6.7-.7 6.8-4.3 19-3.7 12.3-5.1 18.5-4.2 26 .9 7.6 3.1 16.6 4.3 22.9 1.2 6.3 1 9.6-3.6 11.4s-6.2 5.2-6.2 5.2h18.9s-1.1-15.1-1.8-25.3c-.6-10.3-2.7-10.2.6-18.6 3.4-8.4 5.7-17.6 5.7-17.6s1.6 20.6 4.6 28.1c3.3 8 12.9 27 4.9 28.9-5.9 1.4-6.2 4.5-6.2 4.5h17.6s-1.3-7.8-1.5-18.2c.1-10.4-3.3-10.6-4.2-14.7z"/><path fill="#FFF" d="M309.4 977.9s3 14.2 2.6 22.8-6.9 21.4-6.9 21.4l4.3 3.1s11.3-14.9 11.6-23.8c.3-8.9-1.9-28.4-1.9-28.4l-9.7 4.9z"/><path fill="#F4B400" d="M305.1 1022.1s-2.9 4.8-.6 6.4 4.9-3.3 4.9-3.3l-4.3-3.1z"/><path fill="#FFF" d="M303.5 964.9s-12.4 1.2-19.9-2.9c-7.6-4.2-17.6-16.2-17.6-16.2l-4.2 2.8s9.3 16.9 17.1 21.1 20 6.7 20 6.7l4.6-11.5z"/><path fill="#FFF" d="M311.8 962.7c-4.1-.1-5.5-.1-8.3 2.2-4.9 4-12.4 12.9-11.9 17 .8 6.4 8 8.2 6.4 25.2h22.1c-8.5-14.3 8.4-33.8-8.3-44.4z"/><path d="M328.5 1091.5h-17.6s.2-3.1 6.2-4.5c3.3-.8 3.6-4.7 2.5-9.4h7.6c.3 8.2 1.3 13.9 1.3 13.9zm-25.6 0H284s1.5-3.5 6.2-5.2c3.9-1.5 4.6-4.1 4-8.7h7.7c.5 7.4 1 13.9 1 13.9z"/><path fill="#F4B400" d="M266 945.8c-2.3-4.1-1.5-6.4-2.8-10.6-1.3-4.2-3.5-3.9-3.3 1.1.1 5-.9 8.9 1.9 12.4l4.2-2.9zm45 .9c-.2-4.2-6.1-11.1-13.6-5.1-4.1 3.3-3.4 16 2.9 18.2 3.5 1.2 2.2 5.3 2.2 5.3s1.2 1.5 4.9 1c2.7-.3 4.4-3.3 4.4-3.3s-1.3-.9-1.7-2.4c-1.6-7.2 1.2-8.9.9-13.7z"/><path d="M298.1 939.6c2.5-1.5 5.3-2.6 8.9-.9 4 1.9 5.4 5.9 5.2 10-.3 8.4 4 15.7 4.1 17.8 0 0-6 4.4-9.8-5.2-.4-1.1-1.9-5.9.3-10.9.2-.6.4-1.3.2-2.3-.3-1.1-1.2-1.3-2-1.2-.9.1-1.9-.3-2.4-1-1.1-1.5-3.2-3.5-5.9-3.5-2.8 0 .5-2.2 1.4-2.8z"/><path fill="#FFC107" d="M264.4 894.5s.1-4.6 4.5-9.6c5.2-5.8 5-16.4-.9-20.9-2.9-2.2-5.8-3.2-9.2-3.2-3.4 0-6.3 1-9.2 3.2-5.9 4.5-6.1 15.2-.9 20.9 4.5 5 4.5 9.6 4.5 9.6"/><path fill="#FFF" d="M258.8 896.5l-5.6-22.3c-.1-.3.1-.5.4-.6.3-.1.5.1.6.4l4.7 18.5 4.7-18.5c.1-.3.3-.4.6-.4.3.1.4.3.4.6l-5.8 22.3z"/><path fill="#FFF" d="M262.2 874.6c-.2 0-.3-.1-.4-.2-.2-.3-.4-.5-.5-.7-.1.1-.3.2-.4.3l-.4.3-.3-.4c-.2-.2-.3-.4-.5-.6l-.5.5-.4.3-.4-.3-.5-.5c-.2.2-.3.4-.5.6l-.3.4-.4-.3c-.1-.1-.3-.2-.4-.3-.2.2-.4.5-.5.7-.2.2-.5.3-.7.1-.2-.2-.3-.5-.1-.7l.9-1.2.3-.4.4.3c.2.1.3.2.5.4l.6-.6.3-.4.4.3c.2.2.4.3.5.5.2-.2.4-.3.5-.5l.4-.3.3.4.6.6c.2-.1.3-.2.5-.4l.4-.3.3.4.9 1.2c.2.2.1.5-.1.7-.3 0-.4.1-.5.1z"/><path fill="#BDBDBD" d="M253.2 903.1l2.4 1.3h6.4l2.4-1.3"/><path fill="#FFF" d="M264.4 897.3s.6-.6.6-1.4-.6-1.4-.6-1.4h-11.2s-.6.6-.6 1.4.6 1.4.6 1.4-.6.6-.6 1.4.6 1.4.6 1.4-.6.6-.6 1.4.6 1.4.6 1.4l2.4 1.3c.5 1 2.1 1.2 3.2 1.2s2.7-.2 3.2-1.2l2.4-1.3s.6-.6.6-1.4-.6-1.4-.6-1.4.6-.6.6-1.4-.6-1.4-.6-1.4z"/><path fill="#FFC107" d="M258.1 846.6h1.5v9.2h-1.5zm-12.96 3.442l4.6 7.967-1.3.75-4.6-7.97zm-10.662 10.27l7.967 4.6-.75 1.3-7.967-4.6zM230.2 874.5h9.2v1.5h-9.2zm11.454 9.803l.75 1.3-7.967 4.6-.75-1.3zm34.296-.02l7.967 4.6-.75 1.3-7.967-4.6zm2.25-9.783h9.2v1.5h-9.2zm4.99-14.224l.75 1.3-7.967 4.6-.75-1.3zm-10.843-10.146l1.3.75-4.602 7.967-1.3-.75z"/><ellipse fill="#FFF" cx="381.5" cy="478.5" rx="54.8" ry="40.4"/><path fill="#FFF" d="M393.9 511.5l26.4 18.8-13.9-29.3m-37.3 10.5l-26.4 18.8 13.9-29.3"/><circle fill="#F4B400" cx="381.2" cy="478.5" r="10.7"/><path fill="#FF5722" d="M401.5 468.8H421v19.5h-19.5z"/><path d="M364.5 488.3H342l11.3-19.5 11.2 19.5z"/><path fill="#FFF" d="M370.7 586.8h-5.1c-1.3 0-2.3-1-2.3-2.3v-9.9h9.8v9.9c-.1 1.2-1.1 2.3-2.4 2.3z"/><path fill="#FFF" d="M363.3 584.4c-2.1 0-3.8-1.7-3.8-3.8 0-2.1 1.7-3.8 3.8-3.8 2.1 0 3.8 1.7 3.8 3.8 0 2.1-1.7 3.8-3.8 3.8zm0-6.1c-1.3 0-2.3 1-2.3 2.3 0 1.3 1 2.3 2.3 2.3 1.3 0 2.3-1 2.3-2.3 0-1.3-1.1-2.3-2.3-2.3z"/><path fill="#FF5722" d="M326.8 563.8c3.6 8.6 10.7 18.2 14.5 19.7 2.4 1 13.5-2.4 13.5-2.4l2.3 5.3s-13.8 4.8-18.1 5.5c-4.3.7-7.4-4.4-10.4-7.7s-8.3-10.4-8.3-10.4l6.5-10z"/><path fill="#F4B400" d="M328.3 608.9s2.8 19.6 1.7 37.4c-.7 11.3-3.9 30.9-2.3 33.4s6.5 2.5 6.5 5.6h-14.5s-.8-12.4-.7-29.6c0-5-.9-18.9-1.8-24.1-.4-2-3.3-2-3.6 0-1 5.4-2.1 19.2-2.1 21.3-.2 4.1-5.6 23.6-3.3 26.8 2.5 3.5 5.9 2.6 5.9 5.5h-13.6s.1-18.6.7-29.5c.9-15.2-2.2-24.3-1.6-46.9l28.7.1z"/><path fill="#FF5722" d="M313.6 557.5c6.6.3 11.7.6 13.4 7 4.9 18 1.3 44.5 1.3 44.5h-28.7s-2.2-12-.7-26.6-.4-25.7 14.7-24.9z"/><path fill="#FFF" d="M309 557.8l7.3 36.9 1.7-37.1"/><path fill="#FF5722" d="M309 557.8s-11.3 0-23.8 14.3c-4.8 5.5-25.3-6.5-25.3-6.5l-1.9 6.7s21.4 12.7 26.8 9.4c5.4-3.3 14.8-12.4 14.7-2.4-.1 9.9 9.5-21.5 9.5-21.5z"/><path fill="#F4B400" d="M260 565.6s-7.4-.7-9 1.3c-1.6 1.9 3.1 3.9 7.1 5.4l1.9-6.7zm100 18.7c.2 1.9-1.3 3-2.9 2.8-2.2-.3-3.2-.7-3.6-2-1.5-4.4 1.8-5.4 5.1-6.3 1.4-.4 3.2-.6 3.2 1.3s-2 2.3-1.8 4.2zm-53.4-42.2c-.3-5.3.6-11.5 8.3-11.4 10.3.1 7.2 16.1 4.6 20.4-2.9 4.7-1.5 6.5-1.5 6.5s-.9 2-4.2 2.3c-2.5.2-4.7-2.2-4.7-2.2s1.1-1.3.6-5.5c-.7-4.9-2.6-2.5-3.1-10.1z"/><path fill="#FF5722" d="M309.1 549.9l1.2-3.9s-1.7-1.5-1-4.2c.7-2.6 2.8.1 2.8.1l.8-5.8c3.2.4 6.2-.3 8.2-1.1 2.1-.8 8.4-3.8 8.8-11.7 0 0-3.4 2.5-8.9 0-3.2-1.5-5.6-1.8-9.7-.9-6.8 1.5-8.2 8.9-7.9 13.8s4.4 11.8 5.7 13.7z"/><path d="M300.4 685.3H314c0-2.9-3.4-1.9-5.9-5.5h-7.7v5.5zm27.4-5.5h-8.4c.1 3.5.3 5.5.3 5.5h14.5c0-3.1-4.6-3.1-6.4-5.5z"/><path fill="#FFF" d="M376 552.6c-2.9.6-5.8 1.5-8 3.4-.2.2-.5.5-.6.8-.3.7.1 1.5.6 2 .6.5 1.3.8 1.9 1.2.6.3 1.1.8 1.6 1.2.7.7 1.4 1.7 1.1 2.6-.1.7-.6 1.2-1.2 1.6-.7.5-1.4.7-2.2 1-.7.3-1.5.7-2.1 1.2s-1 1.4-.8 2.2c.1.6.5 1.1 1 1.5.5.4 1.1.7 1.6.9-.6-.2-1.1-.7-1.3-1.3-.2-.6-.2-1.3.1-1.8.4-.7 1.1-1 1.8-1.3.6-.3 1.3-.5 2-.8 1.2-.5 2.2-1.2 3.3-1.9.7-.5 1.3-1.1 1.7-1.8.5-1.1.4-2.4-.3-3.4-1-1.4-3-1.7-4.6-2.5-.4-.2-.9-.5-.9-1-.1-.3.1-.7.3-1 .5-.7 1.2-1.1 1.9-1.5 1.3-.6 1.6-.8 3.1-1.3" opacity=".25"/><path fill="#F4B400" d="M406.3 577.7s9.1 10.2 12.6 11.9 12.1-8.4 12.1-8.4l-5.1-8.4s-3.8 7.3-5.8 8.1c-2 .8-11.5-7.9-11.5-7.9l-2.3 4.7z"/><path fill="#F4B400" d="M442.3 560.9c-4.1-.1-5.5-.1-8.4 2.2-2 1.6-3.9 3.6-5.5 5.6-1 1.3-1.9 2.7-2.5 4.1-.8 1.7-1.2 3.3-1 4.6.5 4.1 5.3 9.6 3.4 29.1h22.4c-8.6-14.4 3.5-41.4-8.4-45.6z"/><path d="M453.2 652.7c-2-9.2 6-29.3-2.5-46.2h-22.4c-.7 6.7.1 1.6-3.5 13.8-3.7 12.5-6 18.8-5.1 26.4.9 7.7 3.1 15.4 4.4 21.7s1.8 10.5-2.8 12.3c-4.7 1.8-5.4 4.5-5.4 4.5h17.4s-1.1-13.3-1.8-23.7c-.6-10.4-2.8-10.8.6-19.3s5.8-13.8 5.8-13.8 1.6 16.8 4.7 24.4c3.1 7.6 11 26.4 5 27.8-6 1.4-6.2 4.5-6.2 4.5h16.8s-1.3-5.9-1.5-16.3c-.2-10.3-2.6-11.9-3.5-16.1z"/><path fill="#FF7043" d="M443.6 545.7c.4-3.9-4.1-11.1-11.8-6.6-4.2 2.4-5.3 14.3.2 17.2 3.1 1.6 1.9 6.8 1.9 6.8s.9 1.3 4.3.9c2.5-.3 4.1-3.1 4.1-3.1s-1.1.1-1.3-2.7c-.6-6.8 2.2-7.9 2.6-12.5z"/><path d="M432.7 537.4c2.2-1.5 5.2-1.7 8.3.4 3.4 2.3 4.4 6.2 3.4 10-1 3.8-3.1 4.2-3.3 6 0 0-1-.9-1.9-2.2-.6-.9-.7-2.2-.1-3.1.3-.5.6-1.2.5-2.1-.1-1.1-.9-1.4-1.7-1.4-.9-.1-1.7-.5-2.1-1.3-.9-1.5-5.4-3.5-5.4-3.5s-.4-.9 2.3-2.8z"/><path fill="#F4B400" d="M436.2 569.5c2 5.8 11.4 19.7 9.7 23.2-1.1 2.3-13.8 5-13.8 5l-.3 5.6s18.8-2 22.3-4.3c3.6-2.3-.2-15.5-1.7-19.5-1.6-4-5.7-14.5-5.7-14.5l-10.5 4.5z"/><path fill="#FF7043" d="M431.8 598s-7.7 1.1-7.7 3.8c-.1 2.7 8.2 1.8 8.2 1.8l-.5-5.6z"/><circle cx="444.2" cy="535.3" r="5.4"/><path fill="#FFF" d="M403.8 578.6h5.1c1.3 0 2.3-1 2.3-2.3v-9.9h-9.8v9.9c.1 1.3 1.1 2.3 2.4 2.3z"/><path fill="#FFF" d="M411.2 576.2c-2.1 0-3.8-1.7-3.8-3.8 0-2.1 1.7-3.8 3.8-3.8 2.1 0 3.8 1.7 3.8 3.8 0 2.1-1.7 3.8-3.8 3.8zm0-6.1c-1.3 0-2.3 1-2.3 2.3 0 1.3 1 2.3 2.3 2.3 1.3 0 2.3-1 2.3-2.3 0-1.2-1-2.3-2.3-2.3z"/><path fill="#FF7043" d="M406.5 573.8c-.3 2.8-2.3 3.4-3.8 2.9-2.1-.7-2.9-1.3-3.1-4-.3-4.6 1.5-3.5 4.9-3.8 1.4-.2 2.3 2.1 2 4.9z"/><path fill="#FFF" d="M403.6 545.1c2.2.3 4.3 1.2 6.1 2.4.7.5 1.4 1.1 1.7 1.9.4 1-.1 2.2-.8 3-.7.8-1.7 1.3-2.6 1.9-1.2.7-2.4 1.3-3.6 2-.5.3-1 .5-1.3 1-.7.8-.7 2.1-.2 3 .5 1 1.3 1.7 2.2 2.3 1.1.8 2.3 1.5 3.5 2.1-1.9-.4-4.2-1.2-5.8-2.2-1.6-1-2.4-2.5-2.2-4.4.2-2.5 2.5-4.1 4.7-5.3 1-.6 2.2-1.3 2.3-2.5 0-.5-.2-1.1-.4-1.5-.8-1.8-2.1-3-3.6-3.7z" opacity=".25"/><path fill="#FFF" d="M2126.5 1106.4s-18.3 12.4-24 12.5c-5.7.1-20.4-9.1-20.4-9.1l-1.3 4.6s11.3 15.5 25.2 12.9c13.9-2.5 22.5-7.8 22.5-7.8l-2-13.1z"/><path d="M1919.995 1057.497l27.124 122.428-2.25.498-27.13-122.428z"/><path d="M2069.258 1124.19l.892 2.012-123.86 54.932-.892-2.01z"/><path d="M1919.193 1056.87l151.01 67.5-.938 2.1-151.01-67.5z"/><path fill="#F4B400" d="M2040.9 1105.4h57.8v39.6h-57.8z"/><path fill="#FF5722" d="M1917 1160.3h57.8v39.6H1917z"/><path fill="#FFF" d="M1889.9 1037.9h57.8v39.6h-57.8z"/><circle fill="#F4B400" cx="1918.7" cy="1057.8" r="10.7"/><path fill="#FFF" d="M1936.1 1170.4h19.5v19.5h-19.5z"/><path d="M2081 1135h-22.5l11.3-19.5 11.2 19.5z"/><path fill="#FFF" d="M2135.5 1104.1c-4.3-.1-5.9-.1-8.9 2.4-5.3 4.3-11.3 13.8-10.7 18.2.8 6.3 7.7 7.6 5.8 27h22.8c-9.3-15.4 8.9-36.2-9-47.6z"/><path fill="#FF5722" d="M2147 1207c-2.1-9.8 1.3-13.1 2-28.2.7-14.2 1.1-17.7-4.6-27.3h-22.8c-.7 7.1-1.7 7.3-5.6 20.3-4 13.2-5.5 19.8-4.5 27.9 1 8.1 3.3 17.8 4.6 24.5 1.3 6.7 1.1 10.3-3.8 12.2-4.9 1.9-6.6 5.6-6.6 5.6h20.2s-1.2-16.2-1.9-27.2-2.9-10.9.7-19.9 6.1-18.9 6.1-18.9 1.7 22.1 5 30.1c3.5 8.5 13.8 29 5.3 31-6.4 1.5-6.6 4.8-6.6 4.8h18.9s-1.4-8.3-1.6-19.5c-.2-10.8-3.8-11-4.8-15.4z"/><path fill="#FF7043" d="M2134.4 1083.9c-1.2-5.3-5.9-11.3-13-5.7-3.8 3.1-2.1 16.7 2.8 18.8 6.5 2.9 2.3 9.3 2.3 9.3s1 1.4 4.6.9c2.7-.3 4.4-3.3 4.4-3.3s-1.6-2-2-6.4c-.4-4.9 2.7-6.1.9-13.6z"/><path d="M2116.1 1224.4c1.3 6.7 1.1 10.3-3.8 12.2-4.9 1.9-6.6 5.6-6.6 5.6h20.2s-1.2-16.2-1.9-27.2c-.1-1-.1-1.9-.2-2.7h-10.2c.9 4.4 1.8 8.7 2.5 12.1zm33.6-12.1h-11.3c4.2 9.7 9.6 23.4 2.7 25.1-6.4 1.5-6.6 4.8-6.6 4.8h18.9s-1.4-8.3-1.6-19.5c-.1-5.6-1-8.4-2.1-10.4z"/><path fill="#FF7043" d="M2080.8 1103.3c-2.4.3-3.1.9-3.3 3-.1 1.6.7 3.3 2.1 4.5.4.3.8.6 1.3.8 1.6.6 3.1-.2 4.1-1.2.5-.5.9-1.1 1-1.8.7-3.8-1-5.9-5.2-5.3z"/><path fill="#FFF" d="M2098.8 1133.5s13.5 2.2 19.5.7 10.2-8 14.2-12 9.5-5.2 8.7 1c-.8 6.2-9.3 14.2-13 16.8-3.7 2.7-18.8 1.8-29.2-.5l-.2-6z"/><path fill="#FF7043" d="M2100.1 1135.4c-.2-2.5-.1-3.8-2.1-4-1.5-.1-3.3.6-4.6 2-.4.4-.7.9-.9 1.3-.7 1.6 0 3.2 1 4.2.5.5 1 .9 1.7 1 3.6.9 5.2-.2 4.9-4.5z"/><path fill="#F4B400" d="M2117.1 1079.1c.4-3 7.4-8 14-5s6.2 18.5 16 22.5 13 9.8 12.2 15.5-10 8.9-16.8 2.8-12.2-22.8-14.5-28.2c-2.4-5.5-12 0-10.9-7.6z"/><path d="M1835.1 1099.8c-7.3.4-17.5 1-20.2 7.8-2.6 6.8-5.9 16.4-7 21.9s10.6 16.7 10.6 16.7l.1 10.9h32l-.8-29.7c.1-9.3 2.2-28.5-14.7-27.6z"/><path fill="#F4B400" d="M1826.5 1080.4c-.4-5.9.6-12.8 9.2-12.7 11.5.2 8 19.1 5.1 23.8-3.2 5.2-1.6 8.4-1.6 8.4s-1 2.3-4.7 2.6c-2.7.2-5.4-2.5-5.4-2.5s1.3-1.4.7-6.1c-.6-5.4-2.7-5.1-3.3-13.5z"/><path fill="#FF5722" d="M1850.7 1157.1s3.1 21.8 1.9 41.7c-.8 12.6-4.4 34.4-2.5 37.2 1.9 2.8 7.2 2.7 7.2 6.2h-16.1c-.9-13.8-.1-13.7.1-33 0-5.6-1.8-21-2.9-26.8-.4-2.2-3.6-2.3-4 0-1.1 6.1-2.3 21.4-2.4 23.8-.2 4.6-6.2 26.2-3.7 29.9 2.7 3.9 6.5 2.9 6.5 6.1h-15.2s.1-20.7.8-32.9c1-16.9-2.5-27.1-1.7-52.2h32z"/><path d="M1835.7 1067.7c3.7 0 5.8 2 6.9 4.8-2.1.8-5.6 1.8-9.2 1.3l-.9 6.4s-2.3-3.1-3.1-.1c-.8 2.9 1.1 5.8 1.1 5.8l-1.7 4.2c-1.1-2.3-2-4.6-2.4-9.7-.3-5.9.8-12.8 9.3-12.7zm3.5 32.2s16.4.9 24.2-1.7c7.7-2.6 24.2-21.7 24.2-21.7l5.1 5.9s-16.2 18.2-22.3 21.9c-6.1 3.7-20.7 8.8-20.6 19.9.3 10.9-10.6-24.3-10.6-24.3z"/><path fill="#F4B400" d="M1887.6 1076.4s4.5-4.5 7-3.3c2.5 1.2 1.3 5.7-1.9 9.1l-5.1-5.8zm-49 68.8s6.1 1.8 6.2 4.6c.1 2.8-4.4 3.9-8.9 2.7l2.7-7.3z"/><path fill="#FFF" d="M1819.6 1242.2h15.2c0-3.2-3.8-2.2-6.5-6.1h-8.6c-.1 3.7-.1 6.1-.1 6.1zm30.6-6.1h-9.3c.1 1.7.2 3.7.3 6.1h16.1c0-3.4-5.2-3.5-7.1-6.1z"/><path fill="#FF5722" d="M1850.1 1236c-1.9-2.8 1.7-24.6 2.5-37.2 1.2-19.9-1.9-41.7-1.9-41.7h-32c-.8 25.1 2.7 35.3 1.7 52.2-.5 8-.7 19.7-.8 26.8h8.6c-2.5-3.7 3.5-25.3 3.7-29.9.1-2.4 1.3-17.7 2.4-23.8.4-2.2 3.6-2.2 4 0 1 5.8 2.9 21.3 2.9 26.8-.1 15.9-.7 18.6-.4 26.9h9.3v-.1z"/><path d="M2540.462 873.13l63.75 17.082-24.975 93.21-63.75-17.082z"/><path fill="#FFF" d="M2543.773 883.956l52.158 13.976-19.97 74.567-52.16-13.98z"/><circle fill="#F4B400" cx="2565.6" cy="907" r="8"/><path fill="#4DB6AC" d="M2554.5 919.984l14.102 3.778-3.778 14.102-14.102-3.778z"/><path fill="#FF5722" d="M2560.3 959.6l-16.3-4.4 11.9-11.9 4.4 16.3z"/><circle fill="#FFF" cx="2548.7" cy="970.3" r="1.5"/><path d="M2479.7 1071.8h-49.3c-8-.5-13.8-5.2-14-5.4l1.4-1.7c.1 0 6.1 4.9 14 4.9h47.9c7.9 0 13.9-4.9 14-4.9l1.4 1.7c-.3.2-6.7 5.4-15.4 5.4z"/><circle cx="2477.9" cy="1076.8" r="2.8"/><circle cx="2433.6" cy="1076.8" r="2.8"/><path fill="#8D6E63" d="M2513.4 963.9s5.5-1.4 6.9.6-1.5 5-5.6 6.2l-1.3-6.8z"/><path d="M2448.7 1004.8s18.6 8.9 23 13.3c4.6 4.6 1.3 23.9-3.6 42.1-1.8 6.6 9.3 5.4 8.8 10.5h-18c1.5-34.6 1.5-34.3 1.6-39 .1-6-4.6-8-16.6-8.5-7.2-.3-30.9-5.1-25.3-23.9l30.1 5.5z"/><path d="M2418.7 999.3s-15.5 25.6-18.7 27.8c-4.2 2.9-41.2-4.2-41.2-4.2l-4 19.7s4.5-.8 7.6-7c3.8-7.7 33.6 6.5 43.4 4.4 4-.9 23.2-16.2 28.3-22.5 5.1-6.2-15.4-18.2-15.4-18.2zm49.2 62.9l-8.6-.6c-.2 5.4-.4 9.1-.4 9.1h18c.4-4.5-8.2-3.9-9-8.5z"/><path d="M2358.8 1022.9l-4 19.7s4.5-.8 7.6-7c.6-1.2 1.8-1.8 3.5-2.1l1.8-9c-5.2-.9-8.9-1.6-8.9-1.6z"/><path fill="#FF5722" d="M2458.7 959.5c-5.9-3-11.1-6.4-16.9-4.2-6.1 2.3-9.4 7-12.5 11.7-3.4 5.2-.6 14.9-.6 14.9l-14.4 24.5c20.6 4.8 34.4-1.7 34.4-1.7l7.6-14.6c4.2-7.1 15.9-23.7 2.4-30.6z"/><path fill="#FF5722" d="M2460.9 960.9s17.5 5.8 24.6 7.3 27.9-4.3 27.9-4.3l1.4 6.8s-19.8 6.1-26.1 6.3c-6.4.2-24.2-1.2-29 7.4-4.9 8.8 1.2-23.5 1.2-23.5z"/><path fill="#8D6E63" d="M2459.6 941.7c2.1-4.3 5.6-8.7 11.6-5.2 8 4.8-2.1 16.6-6.1 18.8-4.4 2.4-4.3 5.6-4.3 5.6s-1.9.9-4.6-.4c-2-.9-3-3.7-3-3.7s1.7-.6 3.2-4.2c1.8-4.1.2-4.7 3.2-10.9z"/><path d="M2471 933.7c-4.2-1.5-8.8.6-10.3 4.8l15.1 5.5c1.5-4.2-.7-8.8-4.8-10.3z"/><path d="M2476.4 945.4l-17.2-6.2.4-1.1c1.3-3.6 4.8-6 8.6-6 1.1 0 2.1.2 3.1.6 2.3.8 4.1 2.5 5.2 4.7 1 2.2 1.1 4.7.3 7l-.4 1zm-14.2-7.6l12.8 4.6c.6-3.2-1.2-6.6-4.4-7.7-.8-.3-1.6-.4-2.4-.4-2.5 0-4.8 1.4-6 3.5z"/><path d="M2461.128 937.508l27.983 10.252-.79 2.16-27.98-10.252zM2424.3 1026.9c6.1-4.8 8.8-4.1 20.1-3.7 10.2.4 4.3-7.9-5.7-9.5-9.8-1.6-18.6 4.1-18.5 8 .2 4-2 10 4.1 5.2z"/><path fill="#212121" d="M2756.9 635c-.4-1.1-1.4-1.8-2.5-1.8h-4.8c-1.5 0-2.7 1.2-2.7 2.7v22.2c0 1.5 1.2 2.7 2.7 2.7h12.7c1.9 0 3.2-1.8 2.5-3.6l-7.9-22.2zm-16-1.8h-8.5c-1.5 0-2.7 1.2-2.7 2.7v22.2c0 1.5 1.2 2.7 2.7 2.7h8.5c1.5 0 2.7-1.2 2.7-2.7v-22.2c0-1.5-1.2-2.7-2.7-2.7z" opacity=".4"/><path fill="#FF5722" d="M2788.3 671.4l-18.1-10.9-19-53.6c-.8-2.1-2.8-3.6-5.1-3.6h-183.4v103.3h230.9V681c.1-4-2-7.6-5.3-9.6zm-44.7-13.3c0 1.5-1.2 2.7-2.7 2.7h-8.5c-1.5 0-2.7-1.2-2.7-2.7v-22.2c0-1.5 1.2-2.7 2.7-2.7h8.5c1.5 0 2.7 1.2 2.7 2.7v22.2zm18.6 2.7h-12.7c-1.5 0-2.7-1.2-2.7-2.7v-22.2c0-1.5 1.2-2.7 2.7-2.7h4.8c1.1 0 2.2.7 2.5 1.8l7.9 22.2c.6 1.7-.7 3.6-2.5 3.6z"/><path fill="#212121" d="M2605.2 706.5c0-10.3 8.3-18.6 18.6-18.6s18.6 8.3 18.6 18.6h-37.2z"/><path fill="#E1E1E1" d="M2769.5 706.4h24.2c1.7 0 3.1-1.4 3.1-3.1V699c0-1.7-1.4-3.1-3.1-3.1h-24.2c-1.7 0-3.1 1.4-3.1 3.1v4.3c0 1.8 1.4 3.1 3.1 3.1z"/><path fill="#212121" d="M2741.8 706.5c0-10.3 8.3-18.6 18.6-18.6s18.6 8.3 18.6 18.6h-37.2z"/><circle fill="#212121" cx="2760.4" cy="706.3" r="15.8"/><circle fill="#FFF" cx="2760.4" cy="706.3" r="9.3"/><circle fill="#212121" cx="2623.8" cy="706.5" r="15.8"/><circle fill="#FFF" cx="2623.8" cy="706.5" r="9.3"/><path fill="#E1E1E1" d="M2573.9 706.5c1.7 0 3.1-1.4 3.1-3.1v-4.3c0-1.7-1.4-3.1-3.1-3.1h-11.1c-1.7 0-3.1 1.4-3.1 3.1v4.3c0 1.7 1.4 3.1 3.1 3.1h11.1z"/><path fill="#FFF" d="M2136.8 760.9c-2.1 0-4.2-.3-6.2-.8-11.7-3.1-22.2-12.6-28.8-26-5.9-12-8.2-25.2-10.5-38l-6.3-35.7c-2.9-16.6-6-33.7-14.5-48.5-7.4-12.8-17.1-20.1-26.2-23.5-.4 1.2-.9 2.4-1.5 3.5-3.1 6.2-9.9 12.2-18 11.6-3.1-.2-6.9-1.8-8.6-5.3-2-4.1.2-8.9 3.3-11.4 2.7-2.1 6.5-3.2 11.2-3.3 3.7 0 7.8.6 12.1 1.9 1.4-5 1.6-10.3 1.7-15.1.6-28.7-3.9-54.1-13.3-75.4-13.4-30.4-28.4-53.4-35.2-58.1l1.3-1.9c9 6.2 25.4 34.9 36 59 9.5 21.7 14.1 47.4 13.5 76.4-.1 5-.4 10.5-1.8 15.8 9.6 3.6 19.8 11.3 27.5 24.6 8.7 15.1 12 33.2 14.8 49.2l6.3 35.7c2.2 12.6 4.6 25.7 10.3 37.4 6.3 12.8 16.3 21.9 27.4 24.9 11.8 3.1 26.3-4.7 32.5-13.9 7.9-11.9 14-13.2 20-13.5l.1 2.2c-5.6.3-10.8 1.4-18.2 12.5-3.3 5-8.8 9.5-14.9 12.4-4.9 2.2-9.6 3.3-14 3.3zm-105.8-175h-.3c-4.2 0-7.6 1-9.9 2.8-2.4 1.9-4.1 5.7-2.6 8.6 1.2 2.6 4.3 3.8 6.7 4 7 .6 13-4.8 15.8-10.4.5-1.1 1-2.1 1.4-3.2-3.9-1.2-7.7-1.8-11.1-1.8z"/><path fill="#F4B400" d="M2218.8 741.4c-5.7 1.6-17.5 11.1-20.8 9.3-2.1-1.2-5.7-16.6-5.7-16.6l-5.2 1.4s4.1 18.1 6.1 21.7c2 3.6 10.8 1.4 14.7.1s11.6-4.5 11.6-4.5l-.7-11.4z"/><path d="M2178.5 725.9h19.4v13.2h-19.4z"/><path fill="#FFF" d="M2181.1 725.9h.8v13.2h-.8zm2.7 0h.8v13.2h-.8zm2.7 0h.8v13.2h-.8zm2.7 0h.8v13.2h-.8zm2.7 0h.8v13.2h-.8zm2.6 0h.8v13.2h-.8z"/><path fill="#F4B400" d="M2220.7 744.4c.3 6 7 19.6 4.5 22.4-1.6 1.8-17.4 2-17.4 2l.3 5.4s18.6-.1 22.5-1.3 3.7-10.2 3.3-14.3-1.9-12.4-1.9-12.4l-11.3-1.8z"/><path fill="#F4B400" d="M2227 739.2c-4-.1-5.4-.1-8.2 2.2-4.8 3.9-10.6 11.9-10.1 15.9s6.5 7.3 4.7 26.2h21.7c-8.4-13.9 3.5-40.2-8.1-44.3z"/><path fill="#FF5722" d="M2237.5 830.4c-1.9-9 5.8-30.4-2.4-46.8h-21.7c-.6 6.5.1 3.5-3.4 15.4-3.6 12.1-5.8 18.2-4.9 25.7.9 7.4 3 17.9 4.2 24 1.2 6.1 1.8 10.2-2.7 11.9-4.5 1.7-5.3 4.3-5.3 4.3h16.9s-1.1-18.8-1.7-28.8c-.6-10.1-2.7-7.5.6-15.8 3.3-8.3 5.6-13.4 5.6-13.4s1.5 16.3 4.6 23.7 10.7 28.6 4.8 30-6 4.4-6 4.4h17.3s-1.3-7.6-1.4-17.8c-.2-10.3-3.6-12.8-4.5-16.8z"/><path fill="#8D6E63" d="M2226.2 724.7c-.2-3.8-5.5-10.1-12.3-4.7-3.7 3-3.1 14.5 2.7 16.5 3.2 1.1 2.3 4.9 2.3 4.9s.9 1.2 4.2.8c2.4-.3 4-3 4-3s-.9.5-1.5-2.2c-1.6-6.4.8-7.9.6-12.3zm-36.7-1.5c1.5 0 2.5 1.5 2 2.9-.6 2-1.6 4.7-2.9 4.8-4.3.6-4.6-2.6-5-5.7-.1-1.3 3.2-2.1 4.5-2h1.4zm18.3 45.5s-7.5.7-7.6 3.3c-.2 2.7 7.9 2.1 7.9 2.1l-.3-5.4z"/><path fill="#FFF" d="M2206.5 860.6c-4.5 1.7-5.3 4.3-5.3 4.3h16.9s-.1-2.2-.3-5.4h-9.5c-.4.4-1 .8-1.8 1.1zm27-1.1c-.3.5-.8.9-1.4 1-5.8 1.4-6 4.4-6 4.4h17.3s-.3-2.1-.7-5.4h-9.2z"/><path d="M2214.5 718.3c2.3-1.3 4.8-2.4 8-.8 3.6 1.8 5.1 5.3 4.7 9.1-.4 3.7-2.4 4.4-2.3 6.3 0 0-1.1-.7-2.1-1.8-.7-.8-1-2-.5-3 .2-.5.4-1.2.2-2-.2-1-1.1-1.2-1.8-1.1-.9.1-1.7-.3-2.2-.9-1-1.3-2.9-3.2-5.3-3.2-2.5-.1.5-2.1 1.3-2.6z"/><path d="M2226 724.1s5.6-5.6 8.8-.1c3.2 5.5.5 15.3 6.5 19.2 0 0-4.9 1.6-9.1-3.3-3.3-3.9 1.3-16-4.4-14.4-5.7 1.3-1.8-1.4-1.8-1.4z"/><path fill="#FF5722" d="M2228.8 724.1c-.1-.7-.3-1.4-.6-2.1-.2-.4-.4-.7-.8-.8-.4 0-.7.3-.8.7s0 .7.1 1.1c.2 1.1.5 2.2.4 2.9s.1 1 .7.9c.6-.1.7-.5.9-1.1.2-.5.2-1.1.1-1.6z"/><path d="M1964.2 440.8c6.2 1.7 17.1 11.9 20.7 10 2.3-1.3 6.1-16.3 6.1-16.3l5.6 1.5s-4.4 17.9-6.6 21.8-9.9 1.5-14.1.1-12.4-4.9-12.4-4.9l.7-12.2z"/><path d="M1987.015 424.038l16.8 9.7-6.6 11.43-16.8-9.7z"/><path fill="#FFF" d="M1989.307 425.306l.693.4-6.593 11.435-.693-.4zm2.273 1.38l.694.4-6.594 11.436-.693-.4zm2.324 1.294l.693.4-6.543 11.35-.693-.4zm2.324 1.295l.693.4-6.59 11.435-.69-.4zm2.36 1.43l.693.4-6.59 11.436-.69-.4zm2.322 1.295l.694.4-6.543 11.348-.69-.4z"/><path fill="#F4B400" d="M1970.4 491.4s2.8 19.6 1.7 37.4c-.7 11.3-3.9 30.9-2.3 33.4 1.7 2.5 6.5 2.5 6.5 5.6h-14.5s-.8-12.4-.7-29.6c0-5-.9-18.9-1.8-24.1-.4-2-3.3-2-3.6 0-1 5.4-2.1 19.2-2.1 21.3-.2 4.1-5.6 23.6-3.3 26.8 2.5 3.5 5.9 2.6 5.9 5.5h-13.6s.1-18.6.7-29.5c.9-15.2-2.2-24.3-1.6-46.9l28.7.1z"/><path d="M1955.7 440c6.6.3 11.1-.2 13.4 6s5.2 52.1 5.2 52.1l-35 .8s.2-19.5 1.6-34.1c1.5-14.6-.3-25.6 14.8-24.8z"/><path fill="#FFF" d="M1951.2 440.2l7.2 37 1.7-37.1"/><path d="M1951.2 440.2s-11.3 0-23.8 14.3c-4.8 5.5-25.3-6.5-25.3-6.5l-1.9 6.7s21.4 12.7 26.8 9.4 14.8-12.4 14.7-2.4c-.1 10 9.5-21.5 9.5-21.5z"/><path fill="#FF7043" d="M1902.1 448.1s-7.4-.7-9 1.3c-1.6 1.9 3.1 3.9 7.1 5.4l1.9-6.7zm92.7-22.9c-1.4-.7-3.1.1-3.4 1.7-.4 2.2-.9 5.2.3 6 3.7 2.8 5.7-.1 7.6-2.9.8-1.2-2-3.6-3.3-4.2l-1.2-.6z"/><path d="M1972.3 414.4c0 8.9-8.4 18-18.8 18s-18.8-9-18.8-18c0-8.9 4.4-22.5 18.8-22.5s18.8 13.5 18.8 22.5z"/><path fill="#FF7043" d="M1948.7 422.6c-.3-5.3.6-11.5 8.3-11.4 10.3.1 7.2 17.1 4.6 21.4-2.9 4.7-1.5 7.5-1.5 7.5s-.9 2-4.2 2.3c-2.5.2-4.7-2.2-4.7-2.2s1.1-1.3.6-5.5c-.7-4.9-2.6-4.6-3.1-12.1z"/><path d="M1957 411.2c3.3 0 5.2 1.8 6.2 4.3-1.9.7-5.1 1.6-8.2 1.1l-.8 5.8s-2.1-2.8-2.8-.1c-.7 2.6 1 5.2 1 5.2l-1.4 4c-.7-2.1-2.8-4.1-3.1-8.6-.4-5.3 1.4-11.8 9.1-11.7zm-14.4 156.6h13.6c0-2.9-3.4-1.9-5.9-5.5h-7.7v5.5zm27.4-5.5h-8.4c.1 3.5.3 5.5.3 5.5h14.5c-.1-3.1-4.7-3.1-6.4-5.5z"/><ellipse fill="#FFF" cx="2286.3" cy="683.6" rx="43.9" ry="32.3"/><path fill="#FFF" d="M2260 702.1l-25 6.9 18.5-18.2"/><path d="M2301.3 696.6h-30l15-26 15 26z"/><ellipse fill="#FFF" cx="1870.3" cy="394.1" rx="43.9" ry="32.3"/><path fill="#FFF" d="M1896.5 412.6l25 6.8-18.4-18.2"/><path fill="#FF5722" d="M1857.3 381.1h26v26h-26z"/><path fill="#FFF" d="M2508.112 729.88l32.648-8.748 8.747 32.647-32.647 8.74z"/><circle fill="#F4B400" cx="2528.9" cy="741.8" r="7"/><path fill="#FFF" d="M2499.333 697.29l32.647-8.748 8.747 32.648-32.647 8.747z"/><path fill="#40C4FF" d="M2512.29 704.688l12.265-3.286 3.287 12.266-12.267 3.287z"/><path fill="#FFF" d="M2490.624 664.577l32.647-8.747 8.75 32.647-32.64 8.748z"/><path fill="#FF5722" d="M2520.1 680.7l-14.2 3.8 3.8-14.2 10.4 10.4z"/><path d="M2474.6 767.9c-1.7-2.5 1.9-22 2.8-33.3 1.4-17.8-1.1-37.9-1.1-37.9h-13.5s1.9 21.8 2.1 23c.9 5.2 1.6 19.1 1.5 24.1-.4 17.2.2 29.6.2 29.6h14.5c0-3.1-4.8-3-6.5-5.5z"/><path d="M2440.6 760.9c.1-3 17.9-16.6 22.2-27.1 6.8-16.5 10.6-36.4 10.6-36.4l-19.7 2.9s-.5 10.2-1.1 16.3c-.6 6.1-1.9 15.7-4.9 19.7-10.3 13.8-17 24.3-17 24.3l11.8 8.4c2-2.4-2-5.1-1.9-8.1zm34 7h-8.3c.1 3.5.2 5.5.2 5.5h14.5c.1-3.1-4.7-3-6.4-5.5z"/><path d="M2430.9 760.7l11.8 8.4c1.8-2.5-2-5.1-2-8l-6.9-4.7c-1.9 2.7-2.9 4.3-2.9 4.3zm85.6 2.5l-21.3-79.5-6 1.6-.3-1 7.1-2 21.3 79.6 28.6-7.7.3 1.1"/><circle cx="2505.7" cy="764.6" r="8.8"/><circle fill="#FFF" cx="2505.7" cy="764.6" r="4.4"/><path d="M2488.52 683.39l.778 2.898-10.43 2.797-.778-2.898z"/><path fill="#FF5722" d="M2466.6 645.2c4.9.7 8.9 1.2 9.6 7.7 1.8 17.2 2.5 50.6 2.5 50.6h-26.6l.4-24.1s-5.5-5.7-4.1-11.8c2.9-12.8 6.9-24 18.2-22.4z"/><path fill="#F4B400" d="M2461.2 628.1c0-3.3 1.4-10.4 9.1-9.7 10.3.9 5.9 16.6 3 20.7-3.2 4.5-2.2 7-2.2 7s-.8 1.4-4.1 1.4c-2.5 0-5-2.2-5-2.2s1.6-1.5 1.4-5.8c-.2-4.9-2.1-8.1-2.2-11.4z"/><g fill="#FF5722"><path d="M2469 616.7c-4.4.1-7.9 3.8-7.8 8.2l16-.4c-.1-4.4-3.7-7.9-8.2-7.8z"/><path d="M2460.7 625.5v-.6c-.1-4.7 3.6-8.7 8.3-8.8h.2c4.7 0 8.4 3.7 8.6 8.3v.6l-17.1.5zm8.5-8.3h-.2c-3.9.1-7.1 3.2-7.2 7.1l14.8-.4c-.3-3.8-3.5-6.7-7.4-6.7z"/><path d="M2486.797 623.74l.027 1.1-25.593.622-.02-1.1z"/></g><path fill="#F4B400" d="M2476.6 682.1s4.5-3.6 5.6-.7c.8 2.1 2.6 2.2 2.8 3.1.3 2.5-2.7 5.3-4.5 5.7-2.4.6-6.3-1.7-6.3-1.7l2.4-6.4z"/></svg>